<svg width="47" height="47" viewBox="0 0 47 47" fill="none" xmlns="http://www.w3.org/2000/svg">
<circle cx="23.2559" cy="23.2559" r="23.2559" fill="#293E72"/>
<path d="M23.6583 31.9639C22.3929 31.9639 21.3096 31.7299 20.4083 31.2619C19.5069 30.7765 18.7703 30.1179 18.1983 29.2859C17.6263 28.4539 17.2103 27.5092 16.9503 26.4519C16.6903 25.3772 16.5603 24.2592 16.5603 23.0979C16.5603 21.7459 16.6989 20.4719 16.9763 19.2759C17.2536 18.0799 17.6869 17.0225 18.2763 16.1039C18.8829 15.1852 19.6543 14.4659 20.5903 13.9459C21.5436 13.4259 22.6789 13.1659 23.9963 13.1659C24.9323 13.1659 25.7989 13.3305 26.5963 13.6599C27.4109 13.9719 28.1043 14.4485 28.6763 15.0899C29.2483 15.7312 29.6556 16.5372 29.8983 17.5079H27.1423C26.8649 16.9012 26.4316 16.4419 25.8423 16.1299C25.2529 15.8179 24.6203 15.6619 23.9443 15.6619C23.1989 15.6619 22.5576 15.8005 22.0202 16.0779C21.5003 16.3379 21.0583 16.7019 20.6943 17.1699C20.3303 17.6205 20.0356 18.1405 19.8103 18.7299C19.5849 19.3192 19.4203 19.9345 19.3163 20.5759C19.2123 21.1999 19.1603 21.8152 19.1603 22.4219C19.5763 21.8152 20.0443 21.3299 20.5643 20.9659C21.1016 20.6019 21.6736 20.3419 22.2803 20.1859C22.8869 20.0125 23.4849 19.9259 24.0743 19.9259C25.3049 19.9259 26.3623 20.1772 27.2463 20.6799C28.1303 21.1652 28.8149 21.8499 29.3003 22.7339C29.8029 23.6005 30.0543 24.6145 30.0543 25.7759C30.0543 27.0065 29.7769 28.0899 29.2223 29.0259C28.6849 29.9619 27.9309 30.6899 26.9603 31.2099C26.0069 31.7125 24.9063 31.9639 23.6583 31.9639ZM23.6323 29.4679C24.3603 29.4679 24.9929 29.3119 25.5303 28.9999C26.0849 28.6879 26.5096 28.2719 26.8043 27.7519C27.1163 27.2145 27.2723 26.6252 27.2723 25.9839C27.2723 25.3079 27.1249 24.7012 26.8303 24.1639C26.5356 23.6265 26.1196 23.2019 25.5823 22.8899C25.0623 22.5605 24.4469 22.3959 23.7363 22.3959C23.0603 22.3959 22.4276 22.5519 21.8382 22.8639C21.2663 23.1585 20.8069 23.5745 20.4603 24.1119C20.1136 24.6319 19.9403 25.2472 19.9403 25.9579C19.9403 26.5992 20.0963 27.1885 20.4083 27.7259C20.7203 28.2459 21.1536 28.6705 21.7083 28.9999C22.2803 29.3119 22.9216 29.4679 23.6323 29.4679Z" fill="white"/>
</svg>
