<svg width="56" height="56" viewBox="0 0 56 56" fill="none" xmlns="http://www.w3.org/2000/svg">
<rect width="56" height="56" rx="10" fill="#E6ECFB"/>
<path d="M39.5986 11.8496C40.7273 11.8497 41.6572 12.7337 41.6572 13.832V15.0166C42.3693 15.0126 43.0824 15.0104 43.7979 15.0146C46.0195 15.0304 47.8994 16.897 47.9043 19.1006C47.9133 26.3653 47.9118 33.629 47.9043 40.8906V40.8916C47.8996 42.9248 46.0952 44.7749 44.0615 44.8926L43.8643 44.8984L29.8643 44.8994L25.7676 44.8955C22.5854 44.8895 19.4025 44.8846 16.2197 44.9131H16.1807C14.0482 44.913 12.5681 43.4783 12.0918 42.1299L11.9863 41.7939C11.8959 41.4631 11.8506 41.1435 11.8506 40.8262V34.8955C11.8491 29.6217 11.849 24.349 11.8535 19.0752C11.8568 16.9277 13.7487 15.036 15.9092 15.0156L16.0986 15.0146L17.5703 15.0029C18.0569 15.0002 18.5574 14.9996 18.9961 15.001V13.832C18.9961 12.7336 19.9271 11.8496 21.0557 11.8496C22.1844 11.8497 23.1143 12.7337 23.1143 13.832V14.998H25.1768V13.832C25.1768 12.7338 26.1067 11.8497 27.2354 11.8496C28.3655 11.8496 29.2959 12.7336 29.2959 13.832V14.998H31.3604V13.832C31.3604 12.7337 32.2902 11.8496 33.4189 11.8496C34.5489 11.8498 35.4785 12.7338 35.4785 13.832V14.998H37.5391V13.832C37.5391 12.7336 38.4685 11.8496 39.5986 11.8496ZM23.1143 17.6836C23.1141 18.7819 22.1812 19.6669 21.0527 19.667C19.924 19.667 18.9943 18.7832 18.9941 17.6836V16.501C18.0762 16.4959 16.8732 16.5066 16.1104 16.5137L15.9268 16.5176H15.9258C14.584 16.5303 13.3575 17.7554 13.3574 19.0771C13.3514 24.3523 13.3525 29.6236 13.3525 34.8975L13.3545 40.8281C13.3545 41.013 13.3804 41.2022 13.4385 41.4121L13.5078 41.6299V41.6309C13.8096 42.492 14.7849 43.4202 16.21 43.4131L18.6416 43.3994C21.0733 43.3904 23.5041 43.3939 25.9336 43.3984L35.1152 43.4014L43.8643 43.3984C44.4947 43.3976 45.1307 43.0896 45.6113 42.6143C46.0921 42.1387 46.4021 41.5107 46.4014 40.8896C46.4074 33.6295 46.4084 26.3656 46.3994 19.1025C46.3978 17.714 45.1993 16.5242 43.7822 16.5156C43.0738 16.51 42.3621 16.5133 41.6514 16.5186V17.6836C41.6512 18.7832 40.7214 19.6669 39.5928 19.667C38.4626 19.667 37.5324 18.7833 37.5322 17.6836V16.5H35.4727V17.6836C35.4725 18.7833 34.5423 19.667 33.4121 19.667C32.2836 19.6668 31.3546 18.7831 31.3545 17.6836V16.5H29.2939V17.6836C29.2938 18.7832 28.3644 19.6668 27.2344 19.667C26.1056 19.667 25.1759 18.7832 25.1758 17.6836V16.5H23.1143V17.6836ZM21.0557 13.3516C20.7303 13.3516 20.4971 13.584 20.4971 13.832V17.6836C20.4972 17.9328 20.7301 18.1631 21.0557 18.1631C21.3808 18.163 21.6133 17.9314 21.6133 17.6816V13.832C21.6133 13.5827 21.3812 13.3516 21.0557 13.3516ZM27.2354 13.3516C26.9101 13.3517 26.6777 13.5841 26.6777 13.832V17.6836C26.6779 17.9328 26.9099 18.163 27.2354 18.1631C27.5609 18.1631 27.7949 17.931 27.7949 17.6816V13.832C27.7949 13.5831 27.5614 13.3516 27.2354 13.3516ZM33.416 13.3516C33.0906 13.3516 32.8574 13.584 32.8574 13.832V17.6816C32.8574 17.9327 33.0906 18.1631 33.416 18.1631C33.7414 18.1629 33.9756 17.9309 33.9756 17.6816V13.832C33.9756 13.5832 33.7418 13.3518 33.416 13.3516ZM39.5967 13.3516C39.271 13.3517 39.0371 13.5845 39.0371 13.832V17.6816C39.0371 17.9322 39.271 18.1629 39.5967 18.1631C39.9218 18.1631 40.1553 17.9314 40.1553 17.6816V13.832C40.1553 13.5827 39.9223 13.3516 39.5967 13.3516Z" fill="#293E72" stroke="#293E72" stroke-width="0.3"/>
<path d="M16.6133 18.5786C17.0223 18.5788 17.3575 18.9092 17.3633 19.3208C17.3717 19.9659 17.6595 20.5874 18.1035 21.0483C18.5476 21.5094 19.1378 21.8002 19.7422 21.8003H19.7461L43.4316 21.7983H43.4326C43.8466 21.8003 44.1823 22.1377 44.1807 22.5522C44.1788 22.9647 43.843 23.3003 43.4287 23.3003L19.7461 23.3022H19.7422C17.6959 23.302 15.8904 21.4486 15.8623 19.3403V19.3394C15.8586 18.9254 16.1904 18.5862 16.6025 18.5786H16.6133Z" fill="#293E72" stroke="#293E72" stroke-width="0.3"/>
<path d="M21.4541 27.2271C21.8666 27.2273 22.2041 27.5635 22.2041 27.978V29.8862C22.204 30.3007 21.8665 30.636 21.4541 30.6362C21.0415 30.6362 20.7032 30.3008 20.7031 29.8862V27.978C20.7031 27.5651 21.0412 27.2271 21.4541 27.2271Z" fill="#293E72" stroke="#293E72" stroke-width="0.3"/>
<path d="M27.4561 27.2271C27.8685 27.2273 28.2061 27.5635 28.2061 27.978V29.8862C28.206 30.3007 27.8685 30.636 27.4561 30.6362C27.0434 30.6362 26.7052 30.3008 26.7051 29.8862V27.978C26.7051 27.5651 27.0431 27.2271 27.4561 27.2271Z" fill="#293E72" stroke="#293E72" stroke-width="0.3"/>
<path d="M33.457 27.2271C33.8695 27.2273 34.207 27.5635 34.207 27.978V29.8862C34.2069 30.3007 33.8694 30.636 33.457 30.6362C33.0444 30.6362 32.7062 30.3008 32.7061 29.8862V27.978C32.7061 27.5651 33.0441 27.2271 33.457 27.2271Z" fill="#293E72" stroke="#293E72" stroke-width="0.3"/>
<path d="M39.457 27.2271C39.8695 27.2273 40.207 27.5635 40.207 27.978V29.8862C40.2069 30.3007 39.8694 30.636 39.457 30.6362C39.0444 30.6362 38.7062 30.3008 38.7061 29.8862V27.978C38.7061 27.5651 39.0441 27.2271 39.457 27.2271Z" fill="#293E72" stroke="#293E72" stroke-width="0.3"/>
<path d="M21.4541 36.0972C21.8683 36.0974 22.2041 36.4339 22.2041 36.8481V38.7563C22.204 39.169 21.8668 39.5061 21.4541 39.5063C21.0415 39.5063 20.7032 39.1709 20.7031 38.7563V36.8481C20.7031 36.4355 21.0394 36.0972 21.4541 36.0972Z" fill="#293E72" stroke="#293E72" stroke-width="0.3"/>
<path d="M27.4561 36.0972C27.8703 36.0974 28.2061 36.4339 28.2061 36.8481V38.7563C28.206 39.169 27.8687 39.5061 27.4561 39.5063C27.0434 39.5063 26.7052 39.1709 26.7051 38.7563V36.8481C26.7051 36.4355 27.0414 36.0972 27.4561 36.0972Z" fill="#293E72" stroke="#293E72" stroke-width="0.3"/>
<path d="M33.457 36.0972C33.8712 36.0974 34.207 36.4339 34.207 36.8481V38.7563C34.2069 39.169 33.8697 39.5061 33.457 39.5063C33.0444 39.5063 32.7062 39.1709 32.7061 38.7563V36.8481C32.7061 36.4355 33.0424 36.0972 33.457 36.0972Z" fill="#293E72" stroke="#293E72" stroke-width="0.3"/>
<path d="M39.457 36.0972C39.8712 36.0974 40.207 36.4339 40.207 36.8481V38.7563C40.2069 39.169 39.8697 39.5061 39.457 39.5063C39.0444 39.5063 38.7062 39.1709 38.7061 38.7563V36.8481C38.7061 36.4355 39.0424 36.0972 39.457 36.0972Z" fill="#293E72" stroke="#293E72" stroke-width="0.3"/>
<path d="M42.1992 32.6143C42.6139 32.6143 42.9492 32.9526 42.9492 33.3652C42.949 33.7777 42.6137 34.1152 42.1992 34.1152H17.5596C17.1468 34.1152 16.8088 33.778 16.8086 33.3652C16.8086 32.9526 17.1449 32.6143 17.5596 32.6143H42.1992Z" fill="#293E72" stroke="#293E72" stroke-width="0.3"/>
</svg>
