<svg width="69" height="69" viewBox="0 0 69 69" fill="none" xmlns="http://www.w3.org/2000/svg">
<circle cx="34.2873" cy="34.2873" r="34.2873" fill="#1F375B"/>
<path d="M34.2894 17.1606C38.9429 17.1606 39.5235 17.1778 41.3493 17.2634C43.1734 17.349 44.4151 17.6351 45.5078 18.0598C46.6382 18.4949 47.5905 19.084 48.5428 20.0346C49.4146 20.891 50.0877 21.9272 50.5175 23.0696C50.9406 24.1606 51.2283 25.404 51.314 27.2281C51.3945 29.0538 51.4167 29.6345 51.4167 34.288C51.4167 38.9414 51.3996 39.5221 51.314 41.3478C51.2283 43.1719 50.9406 44.4136 50.5175 45.5063C50.0888 46.6501 49.4148 47.686 48.5428 48.5413C47.6864 49.4114 46.6502 50.0862 45.5078 50.5161C44.4168 50.9391 43.1734 51.2269 41.3493 51.3125C39.5235 51.393 38.9429 51.4153 34.2894 51.4153C29.6359 51.4153 29.0553 51.3981 27.2295 51.3125C25.4055 51.2269 24.1638 50.9391 23.071 50.5161C21.9275 50.087 20.8916 49.413 20.0361 48.5413C19.165 47.6853 18.4911 46.6495 18.0613 45.5063C17.6365 44.4153 17.3505 43.1719 17.2649 41.3478C17.1844 39.5221 17.1621 38.9414 17.1621 34.288C17.1621 29.6345 17.1792 29.0538 17.2649 27.2281C17.3505 25.4023 17.6365 24.1623 18.0613 23.0696C18.4899 21.9258 19.164 20.8898 20.0361 20.0346C20.8919 19.1632 21.9277 18.4893 23.071 18.0598C24.1638 17.6351 25.4038 17.349 27.2295 17.2634C29.0553 17.1829 29.6359 17.1606 34.2894 17.1606ZM34.2894 25.7243C32.0182 25.7243 29.84 26.6265 28.234 28.2325C26.628 29.8385 25.7258 32.0167 25.7258 34.288C25.7258 36.5592 26.628 38.7374 28.234 40.3434C29.84 41.9494 32.0182 42.8516 34.2894 42.8516C36.5606 42.8516 38.7388 41.9494 40.3448 40.3434C41.9508 38.7374 42.8531 36.5592 42.8531 34.288C42.8531 32.0167 41.9508 29.8385 40.3448 28.2325C38.7388 26.6265 36.5606 25.7243 34.2894 25.7243ZM45.4222 25.2961C45.4222 24.7283 45.1966 24.1838 44.7951 23.7823C44.3936 23.3808 43.8491 23.1552 43.2813 23.1552C42.7135 23.1552 42.1689 23.3808 41.7674 23.7823C41.3659 24.1838 41.1403 24.7283 41.1403 25.2961C41.1403 25.8639 41.3659 26.4085 41.7674 26.81C42.1689 27.2115 42.7135 27.437 43.2813 27.437C43.8491 27.437 44.3936 27.2115 44.7951 26.81C45.1966 26.4085 45.4222 25.8639 45.4222 25.2961ZM34.2894 29.1498C35.6522 29.1498 36.9591 29.6911 37.9227 30.6547C38.8863 31.6183 39.4276 32.9252 39.4276 34.288C39.4276 35.6507 38.8863 36.9576 37.9227 37.9212C36.9591 38.8848 35.6522 39.4261 34.2894 39.4261C32.9267 39.4261 31.6198 38.8848 30.6562 37.9212C29.6926 36.9576 29.1512 35.6507 29.1512 34.288C29.1512 32.9252 29.6926 31.6183 30.6562 30.6547C31.6198 29.6911 32.9267 29.1498 34.2894 29.1498Z" fill="white"/>
</svg>
