<svg width="212" height="64" viewBox="0 0 212 64" fill="none" xmlns="http://www.w3.org/2000/svg">
<path fill-rule="evenodd" clip-rule="evenodd" d="M52.9454 31.7655C52.9454 49.2856 41.0693 63.5299 26.4709 63.5299C11.8701 63.5299 0 49.2856 0 31.7655C0 14.2497 11.8701 0 26.4709 0C41.0693 0 52.9454 14.2497 52.9454 31.7655Z" fill="#822433"/>
<path fill-rule="evenodd" clip-rule="evenodd" d="M26.9758 10.1693C26.9758 11.1665 26.9818 13.7256 26.9758 14.651C26.9758 15.0661 27.1307 15.3628 27.327 15.5764C27.4436 15.6954 27.5441 15.7738 27.6434 15.8324C27.6793 15.8641 27.8372 15.9234 27.8935 15.9234C27.9748 15.9365 28.0801 15.9467 28.2117 15.9413C28.5305 15.918 28.8452 15.8085 29.1293 15.4986C29.7347 14.8376 31.0178 13.466 31.5658 12.8767C31.7273 12.7039 31.5568 12.6763 31.4192 12.6811C30.2952 12.7116 29.0922 13.7848 28.2739 14.5188C28.1722 13.4151 28.0029 10.9517 27.1876 10.0173C27.0907 9.91325 26.9758 9.91804 26.9758 10.1693ZM25.9421 10.0173C25.122 10.9517 24.9754 13.4157 24.8815 14.5188C24.0608 13.7848 22.8566 12.7122 21.7344 12.6811C21.5974 12.6763 21.4227 12.7033 21.5831 12.8767C22.1298 13.466 23.4129 14.8376 24.0219 15.4986C24.3055 15.8085 24.6189 15.918 24.9114 15.9359C25.0729 15.9461 25.1734 15.9359 25.2566 15.9228C25.3122 15.9228 25.4701 15.8629 25.5078 15.8318C25.6107 15.7732 25.7076 15.6948 25.8045 15.5997C26.0217 15.3622 26.1766 15.0655 26.173 14.6504C26.173 13.725 26.1766 11.1659 26.1766 10.1687C26.1796 9.91804 26.0337 9.91325 25.9421 10.0173ZM16.4086 32.9636C16.4822 32.1202 15.9121 31.3952 15.1105 31.2408C15.0011 31.2325 14.8916 31.2229 14.7881 31.2091C11.3138 30.8759 7.87892 29.8817 4.69232 28.2044C4.61874 28.1619 4.55234 28.2409 4.58823 28.3127C4.78623 28.6913 5.35512 29.1292 6.22371 29.7441C7.21432 30.4518 10.447 32.0155 13.1987 32.5581C14.2563 32.768 15.3301 32.9038 16.4086 32.9636ZM19.0228 36.9782C19.0652 36.6677 19.0072 36.2567 18.8535 35.887C18.7948 35.6137 18.5998 35.3636 18.3504 35.1674C17.9478 34.8474 17.4328 34.6571 17.0379 34.644C13.4583 34.4424 9.97142 33.1886 6.87395 31.0123C6.71842 30.904 6.66039 30.9764 6.78182 31.1272C7.3226 31.7882 7.85559 32.4857 8.54711 33.0241C10.6432 34.6607 13.0809 35.637 15.5622 36.0749C16.0934 36.1694 16.6348 36.2388 17.1725 36.2836C17.2928 36.2884 17.3729 36.2836 17.3927 36.3201C17.416 36.3524 17.4178 36.4428 17.3855 36.5576C17.34 37.081 17.3125 37.6152 17.3125 38.1482C17.3125 40.6158 17.8676 43.1336 19.1364 45.4451C19.5558 46.2066 20.1659 46.8448 20.7354 47.4789C20.8646 47.6249 20.9406 47.5794 20.8604 47.4143C19.225 44.0405 18.5855 40.4651 19.0228 36.9782ZM22.0724 39.7592C22.0796 39.6551 22.0879 39.5444 22.0939 39.4433C22.0814 38.6423 21.4592 37.9622 20.6253 37.8844H20.5936C20.4668 38.9331 20.4106 39.9919 20.4363 41.0549C20.4883 43.7952 21.5412 47.1876 22.076 48.2686C22.5408 49.2119 22.8788 49.8406 23.2251 50.0919C23.2945 50.1421 23.3776 50.0919 23.3525 50.0147C22.2303 46.6439 21.7888 43.1665 22.0724 39.7592ZM25.4839 40.5841C25.4839 40.5799 25.5294 40.1833 25.5312 40.1779C25.7316 38.9044 25.2895 37.6248 24.4951 36.7227C23.182 35.226 20.9932 35.1034 20.1234 34.1547C19.262 33.2017 19.5988 30.7982 18.2726 29.4169C17.4393 28.5453 16.2639 27.9938 14.949 27.9621L14.5847 27.9477C10.8119 27.9023 7.34952 27.1994 3.76212 25.7542C3.63709 25.7045 3.48754 25.8188 3.58804 25.9593C3.91705 26.3978 4.61276 27.0277 5.83547 27.5422C9.65796 29.1615 14.8551 29.5437 14.8701 29.5437C17.081 29.6538 18.0501 31.6057 18.555 33.3016C18.7279 33.8807 18.9863 34.425 19.2848 34.7702C19.5761 35.1213 20.066 35.5305 20.6373 35.8099C22.2542 36.5983 24.2091 37.8252 23.9268 39.9775C23.9268 39.9865 23.2245 45.0622 24.1697 49.0289C24.4736 50.3024 24.927 51.0819 25.311 51.4737C25.4343 51.5963 25.5736 51.4737 25.5437 51.3451C24.735 47.6399 24.851 44.2235 25.4839 40.5841ZM15.0579 25.2858C14.5692 25.3994 13.4535 25.6818 12.7237 25.9869C12.6053 26.0335 12.5778 26.2429 12.7297 26.3027C13.548 26.6263 15.424 26.8363 16.0312 26.594C16.9195 26.2471 16.7245 24.7839 16.2633 24.1641C14.2414 21.2898 13.0952 17.8478 12.9074 14.1174C12.9008 13.9308 12.8123 13.9308 12.7692 14.1174C12.5784 14.9435 12.3582 15.7864 12.3582 16.649C12.3576 19.8451 13.417 22.814 15.0579 25.2858ZM15.5484 19.9181C16.0306 20.8627 16.5791 21.7654 17.1845 22.6322C17.8928 22.1614 18.1117 21.2724 17.7456 20.5618C17.6852 20.4739 17.6296 20.3835 17.5697 20.2956C15.7165 17.4326 14.4011 14.182 13.7754 10.6975C13.7604 10.6155 13.6629 10.6108 13.6264 10.6885C13.4476 11.0672 13.4535 11.7826 13.502 12.8223C13.554 14.0265 14.3018 17.4793 15.5484 19.9181ZM18.9253 19.3205C20.1869 21.081 19.2477 23.0365 18.2343 24.4872C16.9925 26.2465 18.5185 28.4778 18.4449 27.1737C18.342 25.2535 20.7671 24.1229 21.0949 21.8467C21.263 20.6653 20.9849 19.4204 20.206 18.3945L20.0008 18.111C17.7378 15.1936 16.1777 12.1009 15.1195 8.45724C15.083 8.33461 14.9042 8.28914 14.8551 8.45724C14.7151 8.97648 14.6481 9.8989 14.9849 11.1611C16.0533 15.0931 18.9193 19.3116 18.9253 19.3205ZM36.8981 24.1641C36.4393 24.7839 36.2431 26.2471 37.1326 26.594C37.7398 26.8357 39.6163 26.6263 40.4323 26.3027C40.5836 26.2429 40.5549 26.0335 40.4341 25.9869C39.7109 25.6818 38.5916 25.3994 38.0993 25.2858C39.7468 22.814 40.805 19.8445 40.805 16.649C40.805 15.7864 40.5836 14.9435 40.394 14.1174C40.3515 13.9308 40.2642 13.9308 40.2546 14.1174C40.0662 17.8478 38.923 21.2898 36.8981 24.1641ZM35.4164 20.5618C35.0467 21.2724 35.2657 22.1614 35.95 22.6178C36.5829 21.7654 37.1261 20.8627 37.61 19.9181C38.8626 17.4793 39.6074 14.0265 39.6594 12.8229C39.7073 11.7832 39.7115 11.0672 39.5332 10.6891C39.4967 10.6114 39.4016 10.6161 39.3884 10.6981C38.7591 14.1826 37.4461 17.4332 35.5887 20.2962L35.4164 20.5618ZM34.7129 27.1737C34.6399 28.4778 36.1701 26.2465 34.9253 24.4872C33.9089 23.0365 32.9722 21.081 34.232 19.3205C34.2409 19.3116 37.1117 15.0931 38.1729 11.1623C38.5133 9.8995 38.4487 8.97767 38.3027 8.45844C38.2572 8.29034 38.0784 8.3358 38.0419 8.45844C36.9807 12.1021 35.4272 15.1942 33.1558 18.1122C33.1558 18.1122 32.953 18.3957 32.9512 18.3957C32.1706 19.421 31.8948 20.6665 32.0647 21.8479C32.3901 24.1229 34.8194 25.2535 34.7129 27.1737ZM26.4709 61.4612C12.8972 61.4612 1.85566 48.1364 1.85566 31.7661C1.85566 15.3951 12.8978 2.07506 26.4709 2.07506C40.0441 2.07506 51.0862 15.3951 51.0862 31.7661C51.0868 48.1358 40.0447 61.4612 26.4709 61.4612ZM26.4709 1.16699C12.4079 1.16699 0.969727 14.8927 0.969727 31.7661C0.969727 48.6376 12.4079 62.3633 26.4709 62.3633C40.534 62.3633 51.9703 48.6376 51.9703 31.7661C51.9703 14.8927 40.5346 1.16699 26.4709 1.16699ZM21.5705 31.5603C20.9244 31.5603 20.3699 31.0075 20.261 30.7706C19.941 32.2667 20.7611 32.9684 21.9569 33.188C21.7523 32.704 21.6195 32.1932 21.5711 31.6787V31.5603H21.5705ZM21.604 30.4016C21.6339 29.9368 21.6411 29.3667 21.6554 28.9246C20.5835 28.8056 19.8985 27.9896 19.7568 27.7886C19.1005 28.8415 19.8489 30.1593 21.604 30.4016ZM31.4862 31.6554C31.4408 32.1656 31.3092 32.6771 31.0986 33.1587C32.2956 32.9415 33.0619 32.2392 32.749 30.7431C32.6366 30.98 32.1341 31.5328 31.4868 31.5328V31.6554H31.4862ZM33.3024 27.7665C33.1588 27.9627 32.478 28.7786 31.4037 28.8965C31.421 29.335 31.4276 29.914 31.4569 30.3752C33.2096 30.133 33.9592 28.8151 33.3024 27.7665ZM27.8067 25.126C31.36 27.1689 32.6605 25.2858 32.6605 25.2858C32.6605 25.2858 33.9592 26.8357 31.7243 27.4381C29.3626 28.0752 27.7636 26.6347 27.3832 26.3571C26.6791 25.8367 26.532 24.3962 27.8067 25.126ZM29.7126 23.2746C31.0759 24.1037 31.5311 24.1271 31.5311 24.1271C31.5311 24.1271 31.4838 25.5496 29.4488 24.7701C28.7327 24.492 26.5559 23.2698 26.9244 22.7596C27.5405 21.9018 28.6101 22.5945 29.7126 23.2746ZM25.2554 25.126C21.7021 27.1689 20.4549 25.2858 20.4549 25.2858C20.4549 25.2858 19.1023 26.8357 21.3372 27.4381C23.6989 28.0752 25.2979 26.6347 25.6783 26.3571C26.3824 25.8367 26.529 24.3962 25.2554 25.126ZM23.3489 23.2746C21.9844 24.1037 21.5854 24.1271 21.5854 24.1271C21.5854 24.1271 21.5765 25.5496 23.6115 24.7701C24.3282 24.492 26.5008 23.2698 26.1371 22.7596C25.5168 21.9018 24.4508 22.5945 23.3489 23.2746ZM30.6332 31.0584C30.5734 30.4518 30.4932 29.3577 30.4717 28.7786C28.7997 28.7786 27.0273 27.5021 26.532 26.7029C26.0366 27.5021 24.2612 28.7786 22.5904 28.7786C22.5671 29.3577 22.4887 30.4518 22.4271 31.0584C22.3129 32.1662 22.7077 33.316 23.4429 34.1409C23.8239 34.5692 24.2977 34.985 24.8241 35.226C24.8666 35.244 24.9186 35.2625 24.9701 35.2859L25.2213 35.3953C25.3619 35.4683 25.445 35.5784 25.5808 35.6777C25.9708 35.96 26.5158 35.9421 26.5302 35.9421C26.5481 35.9421 27.0919 35.96 27.4813 35.6777C27.6183 35.5784 27.699 35.4683 27.8444 35.3953L28.0944 35.2859C28.1477 35.2625 28.1949 35.2446 28.241 35.226C28.7662 34.985 29.2382 34.5692 29.6187 34.1409C30.3556 33.316 30.7481 32.1656 30.6332 31.0584ZM28.4869 30.6067C27.5333 30.6067 27.3329 30.3202 27.3329 30.3202C27.3329 30.3202 27.5734 29.5216 28.4851 29.5216C29.3931 29.5216 29.7329 30.1874 29.7329 30.1874C29.7048 30.2879 29.785 30.6067 28.4869 30.6067ZM26.5517 34.2546C25.7507 34.2546 25.0993 33.5894 25.0993 33.3979C25.0993 33.2065 28.0059 33.2065 28.0059 33.3979C28.0065 33.5894 27.3545 34.2546 26.5517 34.2546ZM24.5734 30.6067C23.2795 30.6067 23.3579 30.2879 23.3286 30.1874C23.3286 30.1874 23.6684 29.5216 24.5806 29.5216C25.4869 29.5216 25.7363 30.3202 25.7363 30.3202C25.7363 30.3202 25.5294 30.6067 24.5734 30.6067ZM26.5517 31.8289C26.9686 31.8289 27.3036 32.0029 27.3036 32.1435C27.3036 32.2853 26.968 32.4594 26.5517 32.4594C26.1401 32.4594 25.8045 32.2853 25.8045 32.1435C25.8045 32.0029 26.1401 31.8289 26.5517 31.8289ZM39.9729 32.5587C42.7138 32.0161 45.9525 30.4518 46.9431 29.7447C47.8099 29.1298 48.3812 28.6919 48.569 28.3132C48.6055 28.2415 48.5415 28.1625 48.4685 28.205C45.2825 29.8823 41.85 30.8765 38.3757 31.2097C38.2686 31.2229 38.1597 31.2331 38.0533 31.2414C37.2505 31.3964 36.6792 32.1214 36.7552 32.9642C37.8319 32.9038 38.9051 32.768 39.9729 32.5587ZM32.3022 47.4143C32.2202 47.5794 32.3022 47.6249 32.4266 47.4789C32.9967 46.8454 33.6068 46.2066 34.0262 45.4451C35.2962 43.1336 35.8495 40.6164 35.8495 38.1482C35.8495 37.6158 35.8196 37.081 35.7765 36.5576C35.7466 36.4428 35.7466 36.3524 35.7675 36.3201C35.7885 36.2836 35.865 36.2884 35.9877 36.2836C36.5279 36.2388 37.0656 36.1694 37.6004 36.0749C40.0817 35.6364 42.517 34.6607 44.6161 33.0241C45.3064 32.4857 45.8388 31.7882 46.3766 31.1272C46.4986 30.9764 46.4436 30.9034 46.291 31.0123C43.1876 33.1886 39.7043 34.443 36.1241 34.644C35.7305 34.6571 35.216 34.848 34.8128 35.1674C34.5604 35.3636 34.369 35.6137 34.3091 35.887C34.156 36.2567 34.098 36.6677 34.1398 36.9782C34.5789 40.4651 33.94 44.0405 32.3022 47.4143ZM29.8137 50.0147C29.7856 50.0919 29.8711 50.1421 29.9399 50.0919C30.288 49.8406 30.6242 49.2119 31.0896 48.2686C31.6232 47.1876 32.6737 43.7952 32.7275 41.0549C32.7538 39.9919 32.6976 38.9331 32.5708 37.8844H32.5391C31.704 37.9622 31.0759 38.6423 31.0669 39.4433C31.0759 39.5444 31.0836 39.6545 31.092 39.7592C31.3744 43.1665 30.9305 46.6439 29.8137 50.0147ZM27.6183 51.3451C27.5908 51.4737 27.7295 51.5963 27.8534 51.4737C28.2368 51.0819 28.6909 50.3024 28.9905 49.0289C29.9393 45.0622 29.2388 39.9865 29.2388 39.9775C28.9505 37.8252 30.9078 36.5983 32.5259 35.8099C33.0978 35.5305 33.5865 35.1213 33.8784 34.7702C34.1757 34.425 34.4354 33.8807 34.6076 33.3016C35.1131 31.6057 36.0828 29.6544 38.2925 29.5437C38.3051 29.5437 43.504 29.1621 47.3265 27.5422C48.5469 27.0277 49.2462 26.3972 49.5746 25.9593C49.6715 25.8188 49.5243 25.7039 49.4017 25.7548C45.8173 27.2006 42.3513 27.9029 38.5761 27.9483L38.2142 27.9627C36.8975 27.9944 35.7251 28.5459 34.8882 29.4175C33.5662 30.7988 33.903 33.2023 33.0398 34.1553C32.17 35.104 29.9812 35.2266 28.6681 36.7233C27.8743 37.6254 27.4304 38.9056 27.6308 40.1785C27.6308 40.1833 27.6823 40.5805 27.6823 40.5847C28.3134 44.2235 28.4288 47.6399 27.6183 51.3451ZM42.8682 49.386C42.8209 49.3405 42.7677 49.3495 42.7288 49.3579C42.5906 49.386 42.4225 49.3992 42.2855 49.3818C41.652 49.2981 41.073 49.2574 40.4323 49.1802C40.5549 48.7914 40.5765 48.0939 40.0722 47.6285C39.5571 47.1589 38.8776 47.4018 38.4517 47.8929C38.2692 48.104 38.1053 48.3403 37.9229 48.5599C37.817 48.6831 37.5789 48.9296 37.4844 49.0103C37.4114 49.0707 37.3235 49.1294 37.2654 49.2023C37.1925 49.2843 37.1685 49.3752 37.2565 49.4584C37.351 49.5445 37.424 49.4847 37.5334 49.3621C37.7189 49.1742 37.7524 49.2023 37.9193 49.3573L40.741 51.9517L41.1675 51.323L39.8831 50.1415L39.9376 50.0733C40.0165 49.9812 40.0578 49.9363 40.1075 49.8394L41.5342 49.9944C42.0014 50.0542 42.3567 50.1684 42.7222 49.7431C42.8173 49.6354 42.9136 49.4315 42.8682 49.386ZM39.6397 48.305C39.986 48.6149 40.3653 49.1078 39.7755 49.7922C39.7198 49.8544 39.6893 49.8909 39.6469 49.9274L38.3147 48.7064C38.2656 48.661 38.2453 48.6197 38.3171 48.5371L38.4636 48.3691C38.9081 47.8528 39.255 47.9527 39.6397 48.305ZM5.85761 41.3324C5.75711 41.0399 5.67695 40.5303 5.80736 40.0146L6.25242 40.0511C6.0939 40.4651 6.11423 40.9783 6.18781 41.2098C6.37086 41.7566 6.7567 42.0533 7.22509 41.8882C7.45899 41.8026 7.52838 41.5376 7.58042 41.2505C7.66835 40.8042 7.66596 40.3335 7.84243 39.9141C7.97344 39.5821 8.18041 39.2764 8.64761 39.1071C9.29545 38.8792 9.92117 39.3763 10.1688 40.1151C10.2502 40.3604 10.3082 40.684 10.3686 41.1045C10.0773 41.2272 9.85776 41.3043 9.68189 41.3636C9.59396 41.4 9.49406 41.424 9.44919 41.2822C9.42048 41.1901 9.43244 41.1123 9.73154 40.9394C9.85776 40.8676 9.95168 40.6385 9.80632 40.2013C9.65198 39.7263 9.32477 39.4308 8.87911 39.5851C8.57164 39.6952 8.52797 40.4381 8.50045 40.7259C8.46874 41.0459 8.42747 41.409 8.28031 41.7159C8.14512 41.9935 7.90165 42.2309 7.54632 42.359C6.77764 42.6311 6.11483 42.1077 5.85761 41.3324ZM12.1249 45.3081C12.0884 45.3182 12.043 45.3081 11.897 45.3272L11.8109 45.0179L11.2402 43.8269L7.7186 45.6108L7.32678 44.9671L10.9154 43.1432C10.7604 42.792 10.4607 42.1813 10.4607 42.1813C10.2879 41.826 10.2418 41.9534 9.99415 42.0264C9.8781 42.0581 9.76025 42.076 9.71719 41.9893C9.65916 41.8624 9.7112 41.8122 9.82546 41.753C9.96304 41.68 10.1395 41.5963 10.3142 41.5155C10.5188 41.4186 10.5858 41.5155 10.6516 41.6806C10.7317 41.863 10.8023 42.0228 10.9148 42.2818C11.2486 43.0571 11.629 43.8227 11.9915 44.5801C12.0603 44.7206 12.1608 44.8487 12.2476 44.9719C12.2697 45.0132 12.2978 45.0407 12.3128 45.073C12.3277 45.1095 12.366 45.2273 12.2488 45.2877C12.1895 45.3176 12.183 45.3135 12.1249 45.3081ZM14.812 49.1808C14.7456 49.112 14.6362 49.103 14.5111 49.1383L10.5499 50.257L10.1975 49.8783C11.0536 48.3409 11.6003 47.3336 12.3301 46.0839C12.3899 45.9888 12.4378 45.938 12.3714 45.8327C12.2398 45.6461 12.2553 45.5868 12.3283 45.5276C12.4109 45.4582 12.512 45.481 12.5844 45.5946C12.6711 45.7639 12.8541 46.0205 12.9433 46.1605C13.0527 46.3334 12.9792 46.471 12.8912 46.6169L11.0667 49.6719L14.2928 48.7423C14.4992 48.6783 14.0888 48.2949 14.2563 48.1627C14.3383 48.0999 14.4178 48.1364 14.4968 48.2548C14.5901 48.4145 14.6942 48.5736 14.7827 48.6975C14.8707 48.8159 14.9556 48.9026 15.0741 49.0438C15.1686 49.1491 15.1626 49.2544 15.08 49.3166C15.0286 49.3579 14.9759 49.3405 14.812 49.1808ZM17.5913 53.9951C18.3701 52.9602 18.0944 51.6418 17.0355 50.7942C16.7747 50.5848 16.6001 50.4568 16.4463 50.3425C16.3201 50.2516 16.1921 50.1601 16.0724 50.0602C15.9438 49.9591 15.7847 49.8131 15.7087 49.7228C15.6435 49.654 15.5795 49.5678 15.5066 49.508C15.4246 49.4434 15.3193 49.4392 15.2499 49.5314C15.168 49.6348 15.2649 49.7078 15.3749 49.8041C15.5706 49.9824 15.5347 50.0147 15.4013 50.1966L13.0527 53.3114C13.4021 53.553 13.621 53.6948 13.9094 53.9867C14.038 54.1183 14.1468 54.2428 14.2318 54.3068C15.4419 55.2771 16.7538 55.109 17.5913 53.9951ZM16.9039 53.5722C16.228 54.4701 15.372 54.8308 14.4603 54.0956C14.2198 53.9048 14.0469 53.7445 13.9285 53.5812C13.8549 53.4843 13.8639 53.4717 13.9644 53.3341L16.0072 50.6291C16.0994 50.5064 16.1556 50.5064 16.2567 50.5932L16.7041 50.9527C17.8485 51.8661 17.5003 52.7736 16.9039 53.5722ZM20.0505 53.2252C19.956 53.1929 19.926 53.3072 19.8854 53.3891L18.211 56.8049L17.5267 56.5171L19.2273 53.047C19.3422 52.8191 19.3261 52.8645 19.1454 52.7281C19.0634 52.6641 18.9432 52.6097 18.9994 52.5002C19.0515 52.3901 19.1454 52.3716 19.2692 52.4458C19.4158 52.5367 19.6718 52.6916 19.8004 52.7556C19.929 52.8286 20.1552 52.9249 20.3209 52.9925C20.4453 53.047 20.4866 53.1385 20.4363 53.248C20.3938 53.3341 20.2862 53.3018 20.0505 53.2252ZM25.0454 54.552C24.9425 54.5664 24.854 54.6208 24.7804 54.7303L22.3129 58.2268L21.805 58.1598C21.5466 56.4076 21.3593 55.3225 21.1697 53.8689C21.1589 53.7636 21.1661 53.6906 21.0495 53.6541C20.8335 53.5955 20.8108 53.5357 20.8305 53.4436C20.8562 53.3383 20.949 53.2839 21.0698 53.3341C21.2421 53.4023 21.5394 53.4843 21.6919 53.5393C21.8774 53.6081 21.9067 53.7588 21.9288 53.9263L22.3637 57.4377L24.3156 54.6292C24.4377 54.4509 23.8837 54.4145 23.9352 54.2051C23.9633 54.0998 24.0446 54.0825 24.1756 54.1231C24.3437 54.177 25.0179 54.2326 25.2004 54.2326C25.3403 54.2368 25.402 54.2864 25.384 54.4109C25.3702 54.4976 25.2859 54.5239 25.0454 54.552ZM30.894 53.7313C30.6464 53.8498 30.6296 53.9269 30.7175 54.2601C30.8204 54.6579 31.6818 57.9175 31.6818 57.9175L30.9 58.1221L30.0494 54.7895L29.1862 58.1131L28.8302 58.2334L26.8669 55.3231L27.0913 58.6485L26.4063 58.8441L26.1587 55.045C26.1312 54.6579 26.0743 54.5712 25.8458 54.5526C25.6544 54.5347 25.5718 54.4838 25.5575 54.3798C25.5318 54.2188 25.6693 54.1973 25.7387 54.1931C25.9254 54.1871 26.4141 54.2105 26.5756 54.2015C26.7132 54.1973 26.7868 54.2147 26.8963 54.3744L28.9158 57.4521L29.831 53.9371C29.8801 53.7642 29.9889 53.6817 30.1152 53.6458C30.2809 53.6033 30.6835 53.4484 30.8575 53.4029C30.9257 53.385 31.0926 53.3754 31.1142 53.5219C31.1285 53.6308 31.0555 53.6541 30.894 53.7313ZM37.1476 49.9728C37.0686 50.1284 37.0896 50.3479 37.1201 50.4759L37.9839 54.4432L37.5944 54.7853C36.1695 53.7959 35.2226 53.2575 34.0621 52.4183C33.9765 52.3537 33.9305 52.2992 33.8276 52.3638C33.6397 52.4823 33.5799 52.4643 33.5303 52.386C33.4705 52.295 33.4932 52.1903 33.6116 52.1305C33.7755 52.0444 34.0405 51.8793 34.1763 51.7973C34.3534 51.6968 34.4778 51.783 34.6178 51.8793L37.4598 53.8683L36.7085 50.5298C36.666 50.315 36.2652 50.7122 36.1528 50.5345C36.0948 50.4382 36.1372 50.3694 36.2563 50.2929C36.4656 50.1565 36.8246 49.7808 37.016 49.5541C37.1105 49.4488 37.2254 49.4763 37.287 49.5684C37.3175 49.6223 37.2511 49.7682 37.1476 49.9728ZM44.1453 45.0496C43.5483 44.6614 43.0063 44.8983 42.5936 45.3314C42.6295 44.8899 42.4554 44.5155 42.054 44.26C41.6018 43.9675 40.9216 44.196 40.5394 44.8289C40.4102 45.0395 40.315 45.2578 40.184 45.4726C40.0985 45.6185 39.9436 45.8429 39.8628 45.938C39.7982 46.011 39.7252 46.0839 39.6798 46.1659C39.6158 46.2664 39.6433 46.3753 39.7312 46.4351C39.8108 46.4805 39.849 46.4614 39.9723 46.2754C40.123 46.0516 40.1601 46.0839 40.3467 46.2024L40.4885 46.2987L43.5986 48.3003C43.5986 48.3003 43.8636 47.784 43.9276 47.6847C44.0604 47.4795 44.192 47.3934 44.3284 47.1595C44.7932 46.3986 44.7967 45.4684 44.1453 45.0496ZM41.783 44.9797C42.139 45.2082 42.3818 45.5282 42.0397 46.0929L41.9069 46.3166L40.6793 45.5222C40.5842 45.4582 40.5495 45.4403 40.6034 45.3541L40.6614 45.2536C40.9234 44.8205 41.3505 44.6973 41.783 44.9797ZM43.8121 45.728C44.2404 46.002 44.4079 46.462 44.1322 46.9232C44.0221 47.1098 43.8785 47.2833 43.7385 47.4233C43.6955 47.4658 43.6949 47.4658 43.6566 47.4424L42.1671 46.4805L42.2891 46.2789C42.7677 45.4899 43.3072 45.3996 43.8121 45.728ZM42.3064 42.0664C42.2765 42.1669 42.3908 42.1992 42.468 42.2357L45.8837 43.8766L45.6282 44.5932L42.1545 42.9201C41.9344 42.8142 41.9798 42.8238 41.8506 43.0206C41.7962 43.1067 41.7465 43.2293 41.6359 43.1755C41.5282 43.1258 41.5067 43.0295 41.5719 42.9027C41.6604 42.746 41.7974 42.4822 41.8608 42.3452C41.9206 42.2034 42.0091 41.9713 42.0732 41.8032C42.1234 41.6656 42.2107 41.6202 42.316 41.6746C42.3974 41.7159 42.3734 41.8254 42.3064 42.0664ZM46.985 41.1949C46.8904 41.4862 46.6625 41.9438 46.2558 42.2716L45.9267 41.9707C46.291 41.7338 46.5746 41.3139 46.65 41.0812C46.824 40.5345 46.693 40.0547 46.2187 39.901C45.9848 39.8184 45.7694 39.9919 45.5624 40.1875C45.2304 40.489 44.9636 40.8676 44.5742 41.0956C44.2757 41.278 43.9347 41.3923 43.4598 41.2373C42.8113 41.0172 42.599 40.2336 42.8317 39.4852C42.913 39.2399 43.0512 38.9486 43.2492 38.573C43.5549 38.6555 43.7744 38.7285 43.9503 38.7877C44.0436 38.82 44.1333 38.8607 44.0909 39.0025C44.0604 39.0946 44.0053 39.1484 43.665 39.103C43.519 39.0754 43.3126 39.1999 43.1697 39.6413C43.0213 40.1163 43.1092 40.5626 43.5525 40.7085C43.8671 40.818 44.3337 40.2479 44.5192 40.0373C44.7321 39.8005 44.978 39.5313 45.2753 39.3865C45.5469 39.2447 45.8807 39.2041 46.233 39.3219C47.0083 39.5821 47.232 40.4154 46.985 41.1949Z" fill="white"/>
<path d="M101.619 15.7319H99.1306L99.5458 16.5951C99.806 17.1198 99.8485 17.4948 99.6164 17.9794L91.3271 37.1708L93.1373 36.9064L96.5692 28.4897H104.561L108.106 37.2461L110.633 36.9064L102.001 15.9981C101.916 15.8115 101.769 15.7319 101.619 15.7319ZM96.9819 27.5212L100.713 18.842L104.146 27.5212H96.9819Z" fill="#822433"/>
<path d="M75.7008 16.6346C75.7008 13.0813 79.4395 11.133 82.342 11.133C85.3581 11.133 87.2927 12.3294 87.5553 13.789C87.8568 15.586 87.9663 15.662 88.1924 15.662C88.455 15.662 88.455 15.586 88.455 15.0997C88.455 13.9416 88.4191 12.4455 88.3449 10.9811C86.4199 10.6114 84.1168 10.3135 82.6088 10.3135C76.229 10.3135 73.9313 14.1216 73.9977 17.5804C74.0522 20.4224 75.0368 22.3534 77.9237 23.7448C79.8852 24.6948 82.0315 25.6758 83.9362 26.478C86.2674 27.4686 88.0979 28.4568 88.0979 30.8801C88.0979 34.6195 84.66 36.7222 81.0074 36.7222C79.3815 36.7222 75.6123 35.7495 74.1814 34.516L73.6514 35.5969C75.6828 36.9806 79.2702 37.5447 81.0074 37.5447C85.6393 37.5447 89.9768 34.7744 89.9768 30.0624C89.9768 21.084 75.7008 23.1424 75.7008 16.6346Z" fill="#822433"/>
<path d="M120.414 15.9095C119.13 15.9095 117.133 16.0584 115.851 16.0584C115.023 16.0584 113.816 15.9825 113.21 15.8712C112.605 15.7593 112.158 15.6899 111.925 15.6899C111.699 15.6899 111.554 15.7982 111.554 16.0584C111.554 16.2481 111.594 16.5059 112.266 16.54C114 16.6154 114.079 17.0305 114.079 18.5164V37.2054L116.561 36.9063V17.9936C116.561 17.0299 116.718 16.8457 117.622 16.8457C122.638 16.8457 124.144 18.776 124.144 22.2115C124.144 24.9411 122.899 27.1102 119.244 27.1102C118.417 27.1102 117.623 26.6621 117.473 26.6621C117.36 26.6621 117.243 26.8846 117.243 26.9588C117.243 27.3327 118.489 28.0069 119.432 28.0069C123.77 28.0069 126.63 25.3532 126.63 21.4996C126.629 17.9565 123.275 15.9095 120.414 15.9095Z" fill="#822433"/>
<path d="M209.091 37.3312L211.614 36.9927L202.978 16.082C202.904 15.8942 202.752 15.82 202.598 15.82H200.114L200.524 16.6808C200.792 17.206 200.831 17.5769 200.604 18.0674L193.005 35.6497C189.88 35.3356 182.752 35.0778 180.483 35.0946L193.024 16.7077L192.835 16.0324H181.362C178.879 16.0324 178.534 15.811 178.422 15.811C178.274 15.811 178.2 15.9588 178.161 16.1472L177.856 17.5685C177.82 17.7169 177.932 17.8276 178.006 17.8276C178.122 17.8276 178.804 17.0457 180.048 17.0457H190.066L177.118 36.0296C177.004 36.139 177.004 36.2162 177.004 36.3675C177.004 36.5177 177.083 36.5889 177.272 36.5889C179.139 35.9488 190.782 36.4704 194.118 36.9915L197.593 28.506H205.513L209.091 37.3312ZM201.701 18.9265L205.123 27.5459H197.986L201.701 18.9265Z" fill="#822433"/>
<path d="M175.918 15.6619C175.427 15.6619 173.918 15.9592 173.314 15.9592C172.67 15.9592 170.94 15.6619 170.411 15.6619C170.186 15.6619 170.035 15.7738 170.035 16.0328C170.035 16.2207 170.076 16.4857 170.752 16.5198C172.485 16.5951 172.558 17.0067 172.558 18.5046V33.2418L160.383 16.3367C160.273 16.1836 160.159 16.0717 160.082 15.9586C159.135 15.8839 156.725 15.8109 155.441 15.6613C155.219 15.6225 155.101 15.7732 155.101 16.0322C155.101 16.2201 155.101 16.4851 155.783 16.5192C157.52 16.5945 157.593 17.0061 157.593 18.504V37.2049L158.758 36.8711V18.8031H158.794L172.298 37.2055L173.766 36.9064V18.5046C173.766 17.0067 173.842 16.5951 175.576 16.5198C176.255 16.4857 176.297 16.2207 176.297 16.0328C176.297 15.7738 176.14 15.6619 175.918 15.6619Z" fill="#822433"/>
<path d="M152.755 33.3949C152.569 33.3949 152.305 33.4684 152.043 34.8886C151.812 36.2728 151.283 36.0862 150.76 36.1998C149.962 36.3446 148.229 36.3835 147.174 36.3835C146.117 36.3835 145.48 36.3087 144.726 36.1998C143.78 36.0473 143.745 35.7829 143.745 34.5512V26.8841H150.16H150.381L150.357 26.0568H150.16H143.745V17.3458C143.745 16.9713 143.969 16.8206 144.534 16.8206H148.494C148.679 16.8206 149.358 16.8206 149.702 16.8965C150.229 17.0066 150.76 16.8571 150.984 18.2437C151.248 19.662 151.509 19.7398 151.701 19.7398C151.929 19.7398 151.929 19.662 151.929 19.2899C151.929 18.5045 151.89 17.5294 151.847 16.558C151.811 15.8114 151.663 15.8114 150.984 15.8491C150.003 15.885 149.209 15.9221 147.852 15.9592C146.683 15.9981 143.856 16.0327 142.874 16.0327C142.045 16.0327 140.991 15.9592 140.385 15.8491C139.782 15.7325 139.332 15.6619 139.105 15.6619C138.878 15.6619 138.729 15.812 138.729 16.0716C138.729 16.2565 138.729 16.4856 139.404 16.5197C141.137 16.5951 141.253 17.0066 141.253 18.5045V37.2054L143.332 37.063C144.305 37.063 146.838 37.0977 148.001 37.1342C149.358 37.1707 151.056 37.2461 152.042 37.282C152.722 37.3202 152.869 37.282 152.904 36.5348C152.943 35.5597 152.982 34.6248 152.982 33.8393C152.983 33.4684 152.983 33.3949 152.755 33.3949Z" fill="#822433"/>
<path d="M135.357 15.8843C134.449 15.9591 133.242 16.0327 132.527 16.0327C131.81 16.0327 130.376 15.9591 129.468 15.8843C129.093 15.8484 129.021 15.9591 129.021 16.1834C129.021 16.3707 129.208 16.595 130.456 16.8205C131.089 16.9348 131.206 17.7178 131.206 18.4644V37.1706L133.697 36.9409V18.4644C133.697 17.7555 133.772 16.9354 134.523 16.8205C135.502 16.6698 135.808 16.3707 135.808 16.1834C135.808 15.9591 135.728 15.849 135.357 15.8843Z" fill="#822433"/>
<path d="M157.871 53.0098C157.47 53.0098 156.631 52.816 155.957 52.8627L155.047 52.9231V45.439C155.047 44.8701 155.047 44.7523 154.407 44.7218C154.108 44.7068 154.051 44.6464 154.051 44.528C154.051 44.3946 154.124 44.3186 154.271 44.3186C154.437 44.3186 154.633 44.3635 154.792 44.3946C155.033 44.4382 155.466 44.4676 155.778 44.4676C156.077 44.4676 156.377 44.4532 156.674 44.4388C157.051 44.4239 157.469 44.4083 158.111 44.4083C160.648 44.4083 162.528 46.0522 162.528 48.5341C162.529 51.1877 160.785 53.0098 157.871 53.0098ZM157.782 44.8408H156.674C156.334 44.8408 156.188 44.976 156.188 45.366V51.9074C156.188 52.3686 156.201 52.3985 156.514 52.4888C156.901 52.6066 157.38 52.6378 157.978 52.6378C160.35 52.6378 161.276 50.9801 161.276 48.7088C161.276 46.7216 160.722 44.8408 157.782 44.8408Z" fill="#822433"/>
<path d="M166.506 44.8406C166.234 44.8843 166.234 45.1852 166.234 45.4257V52.8158L165.099 52.9061V45.4257C165.099 45.172 165.084 44.8849 164.86 44.8406C164.382 44.767 164.231 44.7521 164.231 44.6031C164.231 44.4673 164.297 44.3944 164.488 44.4075C164.847 44.438 165.413 44.4673 165.698 44.4673C165.981 44.4673 166.46 44.4386 166.817 44.4075C167.014 44.3944 167.075 44.4673 167.075 44.6031C167.075 44.7353 166.877 44.7826 166.506 44.8406Z" fill="#822433"/>
<path d="M180.073 53.1013C180.014 53.1599 179.625 53.191 179.371 53.1468C178.818 53.0547 178.459 52.9362 178.071 52.3524L177.429 51.3982L175.398 48.1285C175.085 48.1871 175.011 48.2182 174.382 48.2182H173.982V52.7879L172.785 52.953V43.4984C172.785 42.78 172.771 42.631 171.948 42.5874C171.605 42.5724 171.532 42.5575 171.532 42.4073C171.532 42.2141 171.649 42.1836 171.782 42.1836C171.915 42.1836 172.144 42.2303 172.443 42.2715C172.741 42.3182 173.411 42.3768 173.814 42.3768C174.486 42.3768 175.175 42.2871 175.846 42.2871C177.341 42.2871 178.623 43.17 178.623 44.7361C178.623 46.2472 177.474 47.5303 176.546 47.8276L178.399 50.8587C178.937 51.7261 179.235 52.3069 180.044 52.8776C180.147 52.9524 180.161 53.0409 180.072 53.1163V53.1013H180.073ZM175.023 42.6765H174.366C174.114 42.6765 173.982 42.8709 173.982 43.185V47.7696C174.219 47.7983 174.323 47.8162 174.623 47.8162C176.979 47.8162 177.341 46.1413 177.341 44.9598C177.341 43.5726 176.787 42.6765 175.023 42.6765Z" fill="#822433"/>
<path d="M185.468 53.0091C182.916 53.0091 181.021 51.1876 181.021 48.6638C181.021 46.0054 183.259 44.3179 185.468 44.3179C187.784 44.3179 189.921 45.8863 189.921 48.6638C189.92 51.1876 188.024 53.0091 185.468 53.0091ZM185.468 44.736C183.677 44.736 182.274 46.0514 182.274 48.6488C182.274 50.9351 183.346 52.5945 185.468 52.5945C187.755 52.5945 188.665 50.9351 188.665 48.6488C188.665 45.9916 187.109 44.736 185.468 44.736Z" fill="#822433"/>
<path d="M202.074 44.7213C201.344 44.753 201.357 45.0354 201.431 45.7078C201.521 46.4974 202.285 52.8012 202.285 52.8012L201.015 52.922L200.267 45.9758L197.474 52.4124L196.953 52.5033L193.801 45.9464L193.265 52.8006L192.187 52.9346C192.845 44.3457 192.77 45.7646 192.802 45.4248C192.86 44.8828 192.802 44.7512 192.157 44.7195C191.844 44.7046 191.798 44.5879 191.798 44.4844C191.798 44.317 191.919 44.302 192.039 44.317C192.398 44.3618 193.235 44.3923 193.549 44.4222C193.756 44.4366 193.848 44.4844 193.997 44.7818L197.267 51.5438L200.136 44.8087C200.252 44.5263 200.433 44.436 200.641 44.4216C200.969 44.3917 201.792 44.3768 202.135 44.3307C202.27 44.3164 202.434 44.3612 202.434 44.5096C202.433 44.6184 202.389 44.7064 202.074 44.7213Z" fill="#822433"/>
<path d="M210.611 52.9359L209.208 49.4998H206.132L204.787 52.8019L203.888 52.9227L207.22 45.2753C207.296 45.0971 207.282 44.9912 207.19 44.7974L206.983 44.3469H208.085C208.177 44.3469 208.268 44.4073 208.311 44.4983L211.762 52.7869L210.611 52.9359ZM207.727 45.7664L206.37 49.0535H208.983L207.727 45.7664Z" fill="#822433"/>
<path d="M82.824 42.7208C82.4777 42.7794 82.4777 43.2137 82.4627 43.4823C82.4627 43.5876 82.3873 47.3347 82.1654 49.0827C81.9997 50.3221 81.4613 53.0547 78.4171 53.0547C75.3561 53.0547 74.5617 50.6679 74.3571 49.0533C74.2345 48.1877 74.1914 45.5593 74.1914 44.1996C74.1914 43.7683 74.1627 43.4823 74.1627 43.4823C74.1477 43.1527 74.1477 42.7663 73.8636 42.7208C73.1769 42.6006 73.0859 42.5868 73.0859 42.4821C73.0859 42.3021 73.1912 42.2865 73.3832 42.3021C73.8331 42.3326 74.4427 42.3625 74.804 42.3625C75.1587 42.3625 75.6528 42.3326 76.0997 42.3021C76.2995 42.2865 76.4006 42.3021 76.4006 42.4821C76.4006 42.5862 76.2654 42.6311 75.7138 42.7208C75.3998 42.7794 75.3394 43.1096 75.3567 43.4823C75.3567 43.4823 75.3998 46.9172 75.4883 48.6041C75.639 51.2326 76.7607 52.5935 78.4177 52.5935C80.4605 52.5935 81.4015 50.9191 81.5522 48.7249C81.6731 46.9925 81.6731 45.4079 81.6731 43.8131V43.4817C81.6731 43.1521 81.6575 42.7657 81.3722 42.7202C80.6855 42.6 80.5957 42.5862 80.5957 42.4815C80.5957 42.3015 80.6998 42.2859 80.8966 42.3015C81.3423 42.332 81.8035 42.3619 82.166 42.3619C82.5255 42.3619 82.7642 42.332 83.2122 42.3015C83.4055 42.2859 83.5095 42.3015 83.5095 42.4815C83.5089 42.5868 83.3756 42.6317 82.824 42.7208Z" fill="#822433"/>
<path d="M92.9751 44.7213C92.3357 44.753 92.3357 44.8702 92.3357 45.4397V46.1701V52.7868L91.6483 52.9357L86.3932 45.8285V52.7712L85.7782 52.9519V45.7077V45.4391C85.7782 44.8702 85.7782 44.7524 85.1351 44.7207C84.8229 44.7057 84.793 44.6453 84.793 44.5418C84.793 44.4066 84.8528 44.3031 85.0191 44.3181C85.5234 44.3785 86.2592 44.4066 86.6576 44.4371L91.7081 51.3517V46.1689V45.4385C91.7081 44.8696 91.7081 44.7518 91.0645 44.7201C90.7672 44.7051 90.7068 44.6615 90.7068 44.5412C90.7068 44.3929 90.7953 44.3175 90.9311 44.3175C91.1381 44.3175 91.8272 44.4365 92.0826 44.4365C92.3201 44.4365 92.9171 44.3175 93.1133 44.3175C93.2485 44.3175 93.337 44.3929 93.337 44.5412C93.337 44.6627 93.2772 44.7063 92.9751 44.7213Z" fill="#822433"/>
<path d="M97.1008 44.8406C96.8346 44.8843 96.8346 45.1852 96.8346 45.4257V52.8158L95.6957 52.9061V45.4257C95.6957 45.172 95.6801 44.8849 95.457 44.8406C94.979 44.767 94.8301 44.7521 94.8301 44.6031C94.8301 44.4673 94.8905 44.3944 95.0813 44.4075C95.4414 44.438 96.0097 44.4673 96.2933 44.4673C96.5774 44.4673 97.056 44.4386 97.4149 44.4075C97.6093 44.3944 97.6667 44.4673 97.6667 44.6031C97.6667 44.7353 97.4771 44.7826 97.1008 44.8406Z" fill="#822433"/>
<path d="M106.868 44.7835C106.597 44.8272 106.447 45.0509 106.345 45.3039L103.359 52.8167L102.565 52.9071L99.5644 45.4541C99.4896 45.2884 99.4262 45.036 99.3257 44.8852C99.2653 44.7841 99.1744 44.7369 98.9805 44.7219C98.6814 44.7075 98.624 44.6633 98.624 44.543C98.624 44.4078 98.7138 44.3044 98.8627 44.3193C99.2186 44.3642 99.8162 44.3797 100.13 44.4078C100.458 44.4384 100.548 44.677 100.64 44.9313L103.208 51.7268L105.761 45.2884C105.837 45.1113 105.718 44.8708 105.509 44.8421C104.94 44.7536 104.867 44.6633 104.867 44.5903C104.867 44.4683 104.909 44.3959 105.12 44.4078C105.478 44.4384 105.853 44.4683 106.135 44.4683C106.421 44.4683 106.655 44.4384 107.016 44.4078C107.226 44.3953 107.269 44.4683 107.269 44.5903C107.268 44.6764 107.179 44.7213 106.868 44.7835Z" fill="#822433"/>
<path d="M113.276 52.5942C113.263 52.9364 113.158 52.9663 112.858 52.9519C111.709 52.9071 110.559 52.7868 109.407 52.8622L108.514 52.9226V45.4266C108.514 44.8565 108.499 44.7357 107.851 44.707C107.558 44.6914 107.51 44.6466 107.51 44.5287C107.51 44.3947 107.586 44.3193 107.738 44.3193C107.899 44.3193 108.094 44.363 108.259 44.3947C108.498 44.4384 108.915 44.4677 109.23 44.4677C110.306 44.4677 111.366 44.439 112.438 44.3947C112.739 44.3798 112.841 44.3947 112.858 44.7363C112.872 45.1263 112.888 45.5157 112.888 45.813C112.888 46.0386 112.841 46.0667 112.725 46.0667C112.469 46.0667 112.529 45.1556 112.274 44.9923C112.082 44.8715 111.528 44.8284 111.407 44.8284H109.887C109.661 44.8284 109.648 44.8715 109.648 44.9612V48.4433H111.242C111.438 48.4433 111.857 48.4278 111.901 48.1741C112.006 47.6226 112.051 47.5173 112.185 47.5173C112.35 47.5173 112.365 47.6226 112.35 47.7709C112.322 48.1131 112.289 48.3673 112.289 48.6377C112.289 48.9051 112.322 49.1743 112.35 49.5165C112.365 49.6666 112.35 49.7731 112.185 49.7731C112.051 49.7731 112.006 49.666 111.901 49.1151C111.857 48.8609 111.497 48.8315 111.242 48.8315H109.649V51.877C109.649 52.3531 109.662 52.4148 109.976 52.4596C110.262 52.5063 110.516 52.535 110.933 52.535C111.202 52.535 112.499 52.5206 112.679 52.3998C112.934 52.2377 112.873 51.2806 113.141 51.2806C113.264 51.2806 113.305 51.3093 113.305 51.5324C113.305 51.8303 113.293 52.2054 113.276 52.5942Z" fill="#822433"/>
<path d="M121.59 53.0846C121.049 53.0846 120.647 52.8932 120.333 52.4433L119.808 51.6812L118.125 49.1138C117.874 49.1718 117.785 49.1718 117.499 49.1718H117.184V52.8017L116.048 52.9357V45.439C116.048 44.8851 116.034 44.7523 115.393 44.7218C115.094 44.7068 115.048 44.6464 115.048 44.5429C115.048 44.3946 115.138 44.3186 115.272 44.3186C115.434 44.3186 115.63 44.3635 115.797 44.3946C116.034 44.4382 116.722 44.4676 117.035 44.4676C117.573 44.4676 118.125 44.4077 118.661 44.4077C119.857 44.4077 120.975 45.0981 120.975 46.3638C120.975 47.7541 119.843 48.6041 119.184 48.8458C121.097 51.6962 120.676 51.0699 121.413 52.1891C121.517 52.3524 121.739 52.5941 121.921 52.7568C122.025 52.8453 122.128 52.8627 122.128 52.9823C122.128 53.0846 121.8 53.0846 121.59 53.0846ZM118.007 44.7978H117.574C117.275 44.7978 117.185 44.9437 117.185 45.1549V48.756C117.363 48.7692 117.454 48.786 117.692 48.786C119.559 48.786 119.767 47.5154 119.767 46.5738C119.766 45.4671 119.408 44.7978 118.007 44.7978Z" fill="#822433"/>
<path d="M125.727 53.01C125.173 53.01 124.234 52.8449 123.533 52.3699L123.758 51.8465C124.279 52.2957 125.233 52.5948 125.727 52.5948C126.864 52.5948 127.744 52.0247 127.744 50.9055C127.744 50.3109 127.222 49.9645 126.759 49.6959C126.01 49.2628 125.206 48.9643 124.564 48.3661C124.07 47.9187 123.683 47.3839 123.683 46.4262C123.683 45.173 124.863 44.3193 126.299 44.3193C126.772 44.3193 127.371 44.4079 128.042 44.5431C128.074 45.0665 128.074 45.5289 128.074 45.8866C128.074 46.0517 128.074 46.142 127.924 46.142C127.775 46.142 127.73 46.0517 127.639 45.5002C127.566 45.0982 127.134 44.768 126.223 44.768C125.233 44.768 124.384 45.2322 124.384 46.2904C124.384 46.6194 124.576 46.8138 124.819 47.0376C125.191 47.3965 125.803 47.6489 126.265 47.875C126.834 48.1418 127.417 48.4427 127.852 48.8872C128.237 49.2916 128.492 49.8772 128.492 50.5914C128.49 52.1294 127.222 53.01 125.727 53.01Z" fill="#822433"/>
<path d="M132.389 44.8406C132.122 44.8843 132.122 45.1852 132.122 45.4257V52.8158L130.982 52.9061V45.4257C130.982 45.172 130.971 44.8849 130.745 44.8406C130.269 44.767 130.117 44.7521 130.117 44.6031C130.117 44.4673 130.178 44.3944 130.371 44.4075C130.731 44.438 131.296 44.4673 131.58 44.4673C131.868 44.4673 132.343 44.4386 132.704 44.4075C132.898 44.3944 132.954 44.4673 132.954 44.6031C132.955 44.7353 132.765 44.7826 132.389 44.8406Z" fill="#822433"/>
<path d="M141.564 45.0507L141.087 44.9597H138.417V52.8165L137.276 52.9355V44.9597C136.575 44.9442 135.173 44.9597 135.173 44.9597C134.548 44.9597 134.47 45.0973 134.413 45.409C134.383 45.5591 134.413 46.0658 134.189 46.0658H134.159C134.01 46.0658 133.979 45.9761 133.979 45.8122C133.979 45.5149 133.979 45.1254 133.993 44.736C134.009 44.3938 134.113 44.3789 134.413 44.3938C134.802 44.407 135.13 44.4238 135.667 44.4375C137.264 44.4979 138.894 44.4662 140.491 44.4662C140.907 44.4662 141.382 44.3179 141.592 44.3179C141.654 44.3179 141.757 44.346 141.757 44.4662C141.757 44.6905 141.683 44.7211 141.564 45.0507Z" fill="#822433"/>
<path fill-rule="evenodd" clip-rule="evenodd" d="M146.171 43.7862H146.593L144.834 42.0275C144.639 41.8355 144.511 41.7542 144.377 41.7542C144.16 41.7542 143.955 41.9091 143.955 42.198C143.955 42.3763 144.043 42.4732 144.473 42.7388L146.171 43.7862ZM145.575 45.7663L144.213 49.0534H146.831L145.575 45.7663ZM148.455 52.9363L147.051 49.5002H143.975L142.631 52.8023L141.733 52.9231L145.064 45.2757C145.139 45.0975 145.124 44.9916 145.035 44.7978L144.827 44.3473H145.932C146.018 44.3473 146.11 44.4078 146.158 44.4987L149.607 52.7867L148.455 52.9363Z" fill="#822433"/>
</svg>
