<svg width="56" height="56" viewBox="0 0 56 56" fill="none" xmlns="http://www.w3.org/2000/svg">
<rect width="56" height="56" rx="10" fill="#E6ECFB"/>
<path d="M42.0645 11.4023C42.2779 11.3848 42.4812 11.3958 42.6719 11.4326H42.6729C43.1658 11.5341 43.6094 11.8098 43.9414 12.2148L44.0771 12.3965C44.301 12.7296 44.4277 13.1031 44.4629 13.5234C45.0191 13.6163 45.4704 13.8536 45.7871 14.2305C46.1258 14.6336 46.2982 15.1788 46.2969 15.832L46.2939 19.0645L46.2793 19.2061C46.2126 19.5244 45.9297 19.7646 45.5908 19.7646H45.5898C45.2045 19.7627 44.8907 19.4504 44.8906 19.0615L44.8936 15.832C44.8935 15.534 44.8406 15.3289 44.7461 15.1895C44.6822 15.0952 44.5923 15.0232 44.4678 14.9717C44.4663 15.8273 44.4638 16.8202 44.46 17.7588L44.4307 40.1104C44.4307 40.2169 44.4293 40.3234 44.4268 40.4287C44.4271 40.4307 44.4274 40.4331 44.4277 40.4355C44.4285 40.4411 44.4297 40.4507 44.4297 40.4619C44.4297 40.4708 44.4278 40.4786 44.4268 40.4854C44.4122 40.9356 44.3408 41.4115 43.959 41.7949C43.7046 42.052 43.3602 42.2102 42.9307 42.2891V43.9043C42.9307 44.2904 42.6156 44.6064 42.2295 44.6064C41.8436 44.6064 41.5283 44.2921 41.5283 43.9043V42.2871C41.1013 42.2076 40.7573 42.0463 40.5 41.7891C40.1164 41.4038 40.0335 40.9253 40.0127 40.5107L40.0039 40.46L40.0059 40.4297C40.0068 40.4222 40.0082 40.4148 40.0088 40.4111C40.0096 40.4065 40.0097 40.4049 40.0098 40.4043C40.0071 40.3141 40.0039 40.2192 40.0039 40.1318L40.0293 16.1572V16.1553C40.0365 15.6574 40.0432 15.1608 40.0342 14.666L40.0195 14.1719C39.9741 13.1456 40.2385 12.4836 40.624 12.0635C41.0069 11.6463 41.4911 11.4881 41.8477 11.4297L42.0645 11.4023ZM42.2188 39.6504C41.7902 39.6504 41.4415 39.9906 41.418 40.417C41.4221 40.5176 41.4298 40.6039 41.4443 40.6738C41.4597 40.7477 41.4795 40.783 41.4941 40.7979L41.4951 40.7988C41.5227 40.8269 41.6758 40.9443 42.2305 40.9443C42.8108 40.9443 42.9519 40.8196 42.9668 40.8047C42.9754 40.7951 42.993 40.7658 43.0059 40.6953C43.0182 40.6275 43.0233 40.5427 43.0254 40.4453L43.0195 40.3643C42.9709 39.9632 42.6308 39.6506 42.2188 39.6504ZM41.4297 15.9111C41.4309 15.9967 41.431 16.0844 41.4297 16.1729L41.4307 16.1738L41.4229 17.1162L41.4092 38.4082C41.658 38.3072 41.9288 38.2461 42.2168 38.2461C42.5072 38.2461 42.7803 38.3089 43.0303 38.4111L43.0566 17.751L43.0625 15.8027H41.4287C41.4291 15.8385 41.4292 15.8748 41.4297 15.9111ZM42.2627 12.7959C42.207 12.7959 42.1463 12.8019 42.0742 12.8135L42.0732 12.8125C41.9503 12.8336 41.7899 12.8634 41.6572 13.0137C41.5227 13.166 41.3926 13.473 41.4199 14.1113L41.4219 14.4014H43.0654V14.1406C43.0654 14.1089 43.0687 14.0793 43.0723 14.0518C43.0655 13.9709 43.0684 13.9 43.0684 13.874V13.8672C43.0838 13.5644 43.0318 13.3579 42.9131 13.1826V13.1816C42.8141 13.0344 42.644 12.8599 42.3916 12.8076V12.8066C42.3539 12.7992 42.3104 12.7959 42.2627 12.7959Z" fill="#293E72" stroke="#293E72" stroke-width="0.3"/>
<path d="M27.5859 11.416C27.6366 11.4161 27.6804 11.4292 27.7051 11.4365C27.7224 11.4417 27.7326 11.4446 27.7393 11.4463C27.7515 11.4435 27.7684 11.4385 27.7881 11.4385C27.9102 11.4385 28.016 11.4765 28.1055 11.5234C28.4347 11.616 28.7572 11.7679 29.0547 12.0537H29.0537L36.0205 18.6943C36.0821 18.7524 36.1275 18.8163 36.165 18.875C36.1837 18.9041 36.2017 18.9342 36.2178 18.9609C36.2322 18.985 36.246 19.0069 36.2598 19.0283C36.3267 19.0939 36.3818 19.1721 36.4189 19.2617C36.5218 19.4898 36.5833 19.7396 36.582 20.0068L36.6025 41.2881C36.6025 41.7391 36.5942 42.1915 36.5859 42.6406C36.575 43.2229 36.3841 43.7099 36.0361 44.0518C35.6882 44.3934 35.198 44.5757 34.6152 44.5771L13.5264 44.584C12.5557 44.584 11.7525 43.7802 11.7285 42.7998C11.7147 42.2735 11.7164 41.7461 11.7178 41.2227L11.7031 18.75L11.7178 13.416C11.7207 12.8009 11.8997 12.2972 12.252 11.9473C12.6041 11.5974 13.1094 11.421 13.7256 11.4209L19.209 11.418H19.21L24.4258 11.4219C25.4726 11.4219 26.5221 11.4243 27.5703 11.416H27.5859ZM24.4229 12.8232H19.2109L13.7275 12.8262C13.4449 12.8262 13.3113 12.8714 13.2402 12.9414C13.1696 13.0112 13.1234 13.1435 13.1221 13.4248C13.1152 15.2003 13.1098 16.9757 13.1084 18.751L13.1055 25.6484L13.1064 27.9463L13.1055 29.8379L13.1221 40.6006V40.6016L13.1201 41.2275C13.1187 41.7422 13.1175 42.2547 13.1299 42.7666C13.1351 42.9909 13.3303 43.1797 13.5264 43.1797L34.6133 43.1729C34.8483 43.1729 34.9781 43.1242 35.0527 43.0508C35.1273 42.9774 35.1778 42.8485 35.1816 42.6143L35.1982 41.2861L35.1777 20.2246H27.7852C27.3994 20.2244 27.084 19.9111 27.084 19.5234V12.8193L24.4229 12.8232ZM28.4883 18.8232H34.1201L28.4883 13.4521V18.8232Z" fill="#293E72" stroke="#293E72" stroke-width="0.3"/>
<path d="M17.4326 34.019C17.5912 34.066 17.7144 34.1513 17.793 34.2778C17.8691 34.4007 17.8937 34.5465 17.8906 34.6978C17.8801 35.227 17.8842 35.7574 17.8857 36.2905C17.9969 36.1812 18.1078 36.0714 18.2188 35.9604C18.354 35.8252 18.49 35.6887 18.6279 35.5542H18.6289C18.7321 35.4542 18.8542 35.3762 18.9951 35.3521C19.1398 35.3273 19.2853 35.3622 19.4238 35.4536C19.554 35.5401 19.6413 35.6665 19.6719 35.8149C19.7021 35.9618 19.6752 36.1199 19.5996 36.271C19.4736 36.5245 19.3895 36.7674 19.3955 37.0298C19.3966 37.0777 19.4051 37.1096 19.4131 37.1284C19.4169 37.1374 19.4197 37.1433 19.4219 37.146C19.4229 37.1473 19.4243 37.1475 19.4248 37.1479L19.4258 37.1489L19.4277 37.1499C19.4301 37.1503 19.4357 37.1509 19.4443 37.1499C19.4623 37.1477 19.4917 37.1386 19.5332 37.1147L19.7666 36.9614C19.8434 36.9065 19.9212 36.8484 20.0059 36.7886H20.0068C20.5046 36.4393 21.0637 36.2712 21.6602 36.2495H21.6611C21.8829 36.2419 22.1044 36.2389 22.3252 36.2388L22.9854 36.2427L23.1367 36.2515C23.2834 36.2688 23.4125 36.3119 23.5137 36.3901C23.6548 36.4994 23.7192 36.6593 23.7227 36.8423L23.7129 36.9751C23.6903 37.1031 23.629 37.2143 23.5225 37.2964C23.4221 37.3737 23.2936 37.4158 23.1475 37.4321L22.9951 37.4399H22.0967C21.4505 37.436 20.879 37.5907 20.374 38.0024C20.1072 38.2207 19.8176 38.339 19.5254 38.356C19.233 38.3729 18.9482 38.2868 18.6924 38.1147H18.6914C18.4999 37.985 18.3727 37.8127 18.2715 37.6108C18.0958 37.7922 17.9339 37.9607 17.7725 38.1265H17.7715C17.6786 38.2217 17.5696 38.296 17.4424 38.3276C17.3129 38.3598 17.1778 38.3451 17.0439 38.2847C16.913 38.2254 16.8197 38.1351 16.7617 38.021C16.7054 37.9099 16.6881 37.7859 16.6904 37.6636C16.6911 37.6225 16.6884 37.5819 16.6885 37.5415C16.6376 37.658 16.5875 37.7749 16.5361 37.8901C16.4546 38.0723 16.3422 38.2171 16.1924 38.2925C16.0369 38.3707 15.8663 38.3623 15.7012 38.2896C15.5422 38.2195 15.4287 38.0957 15.3809 37.9351C15.3342 37.778 15.3553 37.6019 15.4297 37.4263C15.8531 36.4291 16.2786 35.434 16.709 34.4409C16.8405 34.1354 17.1228 33.9274 17.4326 34.019Z" fill="#293E72" stroke="#293E72" stroke-width="0.3"/>
<path d="M32.1836 29.2871C32.4712 29.2871 32.711 29.4173 32.8428 29.6221C32.9587 29.8023 32.9835 30.0292 32.8965 30.2471L32.8525 30.3398C32.7793 30.4699 32.6816 30.5589 32.5645 30.6123C32.4508 30.6641 32.328 30.6787 32.209 30.6787H32.208C30.6281 30.6732 24.5814 30.6758 23.001 30.6758C21.4417 30.6758 17.6923 30.6772 16.1328 30.6758C15.9091 30.6757 15.712 30.6218 15.5693 30.499C15.4598 30.4046 15.3938 30.2796 15.3682 30.1357L15.3555 29.9863C15.3563 29.7814 15.4313 29.601 15.5762 29.4736C15.7191 29.3481 15.9158 29.2871 16.1387 29.2871H32.1836Z" fill="#293E72" stroke="#293E72" stroke-width="0.3"/>
<path d="M32.1836 26.7388C32.4712 26.7388 32.711 26.869 32.8428 27.0737C32.9587 27.254 32.9835 27.4809 32.8965 27.6987L32.8525 27.7915C32.7793 27.9216 32.6816 28.0105 32.5645 28.064C32.4508 28.1158 32.328 28.1303 32.209 28.1304H32.208C30.6281 28.1249 24.5814 28.1274 23.001 28.1274H16.1328C15.9091 28.1267 15.7119 28.0724 15.5693 27.9497C15.4599 27.8554 15.3939 27.7308 15.3682 27.5874L15.3555 27.438C15.3563 27.2331 15.4313 27.0526 15.5762 26.9253C15.7191 26.7998 15.9158 26.7388 16.1387 26.7388H32.1836Z" fill="#293E72" stroke="#293E72" stroke-width="0.3"/>
<path d="M32.1846 24.1899C32.4719 24.1909 32.7112 24.3213 32.8428 24.5259C32.9752 24.7317 32.9891 24.9984 32.8525 25.2427C32.7793 25.3727 32.6816 25.4617 32.5645 25.5151C32.4508 25.5669 32.328 25.5815 32.209 25.5815H32.208C30.6281 25.576 24.5814 25.5786 23.001 25.5786C21.4417 25.5786 17.6923 25.58 16.1328 25.5786C15.9091 25.5785 15.712 25.5247 15.5693 25.4019C15.4598 25.3074 15.3938 25.1824 15.3682 25.0386L15.3555 24.8892C15.3563 24.6842 15.4313 24.5038 15.5762 24.3765C15.7191 24.2509 15.9158 24.19 16.1387 24.1899H32.1846Z" fill="#293E72" stroke="#293E72" stroke-width="0.3"/>
<path d="M25.2852 31.8359C25.5474 31.836 25.7728 31.9392 25.9121 32.1152C26.0527 32.2929 26.0932 32.5304 26.0107 32.7695V32.7705C25.9503 32.9447 25.8488 33.0661 25.7119 33.1396C25.5804 33.2102 25.4304 33.2293 25.2852 33.2285C23.7161 33.2216 17.6975 33.225 16.1367 33.2236C15.9121 33.2236 15.7138 33.1697 15.5703 33.0479C15.4233 32.9229 15.3529 32.7437 15.3545 32.5381C15.3562 32.3332 15.4335 32.1519 15.5771 32.0234C15.7193 31.8965 15.9141 31.8321 16.1348 31.832C19.2634 31.8307 22.1566 31.8318 25.2852 31.8359Z" fill="#293E72" stroke="#293E72" stroke-width="0.3"/>
<path d="M21.1963 14.5347C21.5825 14.5347 21.8975 14.8506 21.8975 15.2368C21.8973 15.6226 21.584 15.938 21.1963 15.938H15.4414C15.0537 15.938 14.7394 15.6226 14.7393 15.2368C14.7393 14.8509 15.0536 14.5347 15.4414 14.5347H21.1963Z" fill="#293E72" stroke="#293E72" stroke-width="0.3"/>
<path d="M18.4404 16.7178C18.8262 16.718 19.1416 17.0322 19.1416 17.4199C19.1415 17.8062 18.8257 18.1211 18.4385 18.1211H15.4414C15.0553 18.1211 14.7394 17.806 14.7393 17.4199C14.7393 17.034 15.0536 16.7178 15.4414 16.7178H18.4404Z" fill="#293E72" stroke="#293E72" stroke-width="0.3"/>
</svg>
