<svg width="20" height="20" viewBox="0 0 20 20" fill="none" xmlns="http://www.w3.org/2000/svg">
<path d="M4.90918 0.366211C4.99508 0.386546 5.0753 0.425709 5.14453 0.480469C5.21392 0.535416 5.27101 0.605384 5.31055 0.68457L7.21777 4.49902V4.5C7.27431 4.61329 7.29372 4.74124 7.27344 4.86621C7.25815 4.96003 7.22146 5.04886 7.16602 5.125L7.10449 5.19727L5.50684 6.79492L5.37988 6.9209L5.4082 7.09766C5.51091 7.73814 5.83381 8.44113 6.27344 9.12891C6.71591 9.8211 7.29114 10.5197 7.9248 11.1533C8.5586 11.7871 9.25782 12.3631 9.9502 12.8057C10.638 13.2452 11.3411 13.5679 11.9814 13.6709L12.1582 13.6992L12.2842 13.5723L13.8818 11.9746H13.8828C13.9724 11.885 14.0879 11.826 14.2129 11.8057C14.3379 11.7854 14.4658 11.8048 14.5791 11.8613V11.8604L18.3945 13.7686C18.4737 13.8081 18.5437 13.8652 18.5986 13.9346C18.6534 14.0038 18.6926 14.084 18.7129 14.1699C18.7332 14.256 18.7349 14.346 18.7168 14.4326C18.6987 14.5193 18.6615 14.6011 18.6084 14.6719L15.7461 18.4873C15.6899 18.5623 15.617 18.6231 15.5332 18.665C15.4493 18.707 15.3565 18.7295 15.2627 18.7295C10.7788 18.7294 7.05653 17.2242 4.45605 14.624C1.85555 12.0235 0.349696 8.30063 0.349609 3.81641C0.349609 3.72265 0.372132 3.62976 0.414062 3.5459C0.455991 3.4621 0.516832 3.38923 0.591797 3.33301L4.40723 0.470703C4.47801 0.417567 4.55985 0.380411 4.64648 0.362305C4.7331 0.344217 4.82307 0.345878 4.90918 0.366211Z" fill="#293E72" stroke="white" stroke-width="0.7"/>
</svg>
