<svg width="56" height="56" viewBox="0 0 56 56" fill="none" xmlns="http://www.w3.org/2000/svg">
<rect width="56" height="56" rx="10" fill="#E6ECFB"/>
<path d="M40.0146 11.0796L39.8271 11.3218C39.3687 11.9125 39.1553 12.539 39.1553 13.2612C39.1583 16.7511 39.1563 20.2427 39.1562 23.7339L39.1553 28.9702L39.1562 33.0151C39.1562 36.1598 39.1578 39.3019 39.1533 42.4468C39.1517 43.5451 38.3258 44.4605 37.2295 44.5737L37.2305 44.5747C36.1726 44.6949 35.1895 43.9596 34.9346 42.896V42.895C34.8711 42.6279 34.8612 42.3405 34.8936 41.9771C34.9084 41.8049 34.901 41.6137 34.7832 41.4839C34.6672 41.3562 34.4814 41.3276 34.2637 41.3276H34.2549C30.1739 41.3366 26.093 41.3374 22.0137 41.3374H16.5547C16.4714 41.3374 16.3895 41.3374 16.3291 41.3413C16.2976 41.3434 16.2809 41.3468 16.2754 41.3481C16.278 41.3474 16.2877 41.3435 16.2998 41.3354C16.3169 41.324 16.3685 41.28 16.3584 41.2026L16.0684 41.271C16.0651 41.2615 16.0656 41.2508 16.0635 41.2407L16.0615 41.2417C16.0612 41.2395 16.0627 41.237 16.0625 41.2349C16.0583 41.2135 16.0522 41.193 16.0508 41.1763C16.0481 41.1455 16.047 41.1093 16.0459 41.0718C16.0438 40.9966 16.0439 40.9068 16.0439 40.8257C16.0424 31.6392 16.0424 22.4512 16.0439 13.2632C16.0439 12.004 16.9659 11.0796 18.2295 11.0796H40.0146ZM20.1768 34.6216C20.0477 34.5836 19.8698 34.6568 19.7607 34.9087C19.2898 35.9976 18.8218 37.0865 18.3584 38.1782C18.2969 38.3233 18.2923 38.4398 18.3174 38.5239C18.3415 38.6046 18.3974 38.6714 18.4941 38.7144C18.6071 38.7644 18.6936 38.7601 18.7637 38.7251C18.8394 38.6871 18.9218 38.6003 18.9941 38.438C19.1377 38.118 19.2767 37.7949 19.418 37.4702L19.6025 37.0474L19.7021 37.4976C19.7501 37.7136 19.765 37.9226 19.7666 38.1245L19.7646 38.3237C19.7627 38.4254 19.7777 38.5052 19.8086 38.5659C19.8307 38.6092 19.8634 38.6478 19.9131 38.6802L19.9688 38.7104C20.0585 38.7513 20.1337 38.7561 20.1992 38.7397C20.267 38.7228 20.3376 38.6794 20.4111 38.604C20.639 38.3702 20.8669 38.1348 21.1279 37.8647L21.29 37.6978L21.376 37.9146C21.493 38.2122 21.6178 38.4128 21.8203 38.5483H21.8213C22.0505 38.703 22.2953 38.7737 22.54 38.7593C22.7849 38.7449 23.0408 38.6445 23.29 38.4409C23.9124 37.9328 24.6166 37.7488 25.3799 37.7534C25.7077 37.7549 26.0331 37.7534 26.3623 37.7534C26.5608 37.7527 26.6813 37.7139 26.749 37.6616C26.8088 37.6154 26.8469 37.543 26.8457 37.4155C26.8445 37.2912 26.805 37.2158 26.7412 37.1665C26.6707 37.1121 26.5483 37.0722 26.3516 37.0708H26.3506C25.8687 37.0663 25.3906 37.0613 24.9131 37.0776C24.3133 37.0992 23.761 37.2671 23.2695 37.6118C23.1033 37.7288 22.9213 37.8748 22.7275 37.9858L22.7266 37.9849C22.5897 38.064 22.4289 38.103 22.291 38.021C22.1895 37.9605 22.1373 37.8561 22.1162 37.7427L22.1055 37.6274C22.0988 37.2674 22.2132 36.9461 22.3623 36.6479C22.4201 36.5324 22.4314 36.4313 22.415 36.3521C22.399 36.2745 22.3542 36.2071 22.2773 36.1567C22.1809 36.0939 22.1008 36.0806 22.0322 36.0923C21.9782 36.1015 21.9204 36.128 21.8594 36.1753L21.7969 36.23C21.647 36.3753 21.4993 36.5237 21.3506 36.6724C21.2023 36.8206 21.053 36.9696 20.9014 37.1167C20.8983 37.1197 20.8936 37.125 20.8789 37.144C20.8674 37.159 20.8476 37.1853 20.8223 37.2085C20.7953 37.2331 20.7576 37.2593 20.707 37.272C20.6558 37.2848 20.6037 37.2808 20.5537 37.2651L20.4482 37.2319V37.1216C20.4482 36.4367 20.4411 35.7464 20.4531 35.0591L20.4502 34.9673C20.4431 34.8823 20.4229 34.8177 20.3926 34.769C20.3544 34.7077 20.2907 34.6552 20.1768 34.6216ZM18.8428 32.2349C18.6607 32.2349 18.5269 32.2875 18.4404 32.3647C18.3555 32.4406 18.3034 32.5513 18.3027 32.6958C18.3021 32.846 18.3508 32.9477 18.4287 33.0142C18.5104 33.0837 18.6451 33.1323 18.8457 33.1323H18.8467C20.5554 33.1338 27.1564 33.1297 28.8779 33.1372C29.0141 33.1379 29.1186 33.1193 29.1963 33.0776C29.2685 33.0389 29.3318 32.9723 29.375 32.8462C29.4319 32.6798 29.4002 32.533 29.3164 32.4272C29.2311 32.3198 29.0797 32.2404 28.874 32.2397C25.4444 32.2352 22.2724 32.2334 18.8428 32.2349ZM18.7178 29.4526C18.5963 29.471 18.5044 29.5146 18.4404 29.5708C18.3574 29.644 18.3063 29.7518 18.3057 29.897C18.3051 30.0517 18.3541 30.1542 18.4307 30.2202C18.5107 30.2892 18.643 30.3373 18.8428 30.3374H26.3721C28.1049 30.3374 34.7356 30.3358 36.4688 30.3403C36.5758 30.341 36.6604 30.3271 36.7275 30.2964C36.7913 30.2671 36.8493 30.2182 36.8984 30.1304C36.9927 29.9616 36.9773 29.794 36.8965 29.6685C36.825 29.5575 36.6949 29.469 36.5176 29.4478L36.4385 29.4429C33.0081 29.4399 22.2796 29.4414 18.8496 29.4429L18.7178 29.4526ZM18.7178 26.6587C18.5963 26.6771 18.5044 26.7206 18.4404 26.7769C18.3573 26.85 18.3063 26.9578 18.3057 27.103C18.3051 27.2579 18.3541 27.3602 18.4307 27.4263C18.5107 27.4953 18.6428 27.5434 18.8428 27.5435H26.3721C28.1049 27.5435 34.7356 27.5419 36.4688 27.5464C36.5758 27.5471 36.6604 27.5332 36.7275 27.5024C36.7913 27.4732 36.8493 27.4242 36.8984 27.3364C36.9926 27.1677 36.9773 27 36.8965 26.8745C36.8147 26.7478 36.6563 26.6502 36.4385 26.6489C33.0081 26.6459 22.2796 26.6474 18.8496 26.6489L18.7178 26.6587ZM18.8506 23.854C18.6619 23.8548 18.5277 23.907 18.4424 23.9819C18.3592 24.0551 18.3082 24.1628 18.3076 24.3081C18.3071 24.4628 18.3551 24.5653 18.4316 24.6313C18.5117 24.7005 18.6444 24.7485 18.8447 24.7485H26.373C28.1057 24.7485 34.7365 24.747 36.4697 24.7515H36.4707C36.5775 24.7521 36.6614 24.7382 36.7285 24.7075C36.7924 24.6783 36.8502 24.6295 36.8994 24.5415L36.9297 24.479C36.9884 24.3328 36.9684 24.1905 36.8975 24.0806C36.8156 23.9539 36.657 23.857 36.4395 23.8569C33.0082 23.8539 22.279 23.854 18.8506 23.854ZM18.082 15.6694C17.8348 15.6697 17.6319 15.8713 17.6318 16.1196C17.6318 16.369 17.8344 16.5709 18.082 16.5698H21.3682C21.6154 16.5698 21.8184 16.3669 21.8184 16.1196C21.8183 15.8722 21.6166 15.6694 21.3682 15.6694H18.082ZM18.082 13.2769C17.835 13.2771 17.6318 13.48 17.6318 13.7271C17.6321 13.9742 17.8339 14.176 18.082 14.1763H24.3945C24.6418 14.1762 24.8445 13.9753 24.8447 13.7271C24.8447 13.4782 24.6416 13.2757 24.3936 13.2769H18.082Z" stroke="#293E72" stroke-width="0.3"/>
<path d="M33.9541 42.4097C33.9512 43.1108 34.1729 43.7469 34.6309 44.3403L34.8174 44.5815H34.5127L17.917 44.5835C16.2756 44.5835 14.6357 44.5817 12.9941 44.5757C11.8538 44.5725 10.9268 43.7189 10.8438 42.5913C10.8395 42.5408 10.8385 42.5021 10.8379 42.4751L10.7197 42.3345L10.9414 42.271C10.9792 42.2602 11.0432 42.2485 11.1562 42.2485H11.1572C14.6948 42.2575 18.2343 42.2612 21.7734 42.2612L31.2041 42.2593C32.0561 42.2593 32.9102 42.2592 33.7686 42.2622L33.7715 42.2632L33.9551 42.2222L33.9541 42.4097Z" stroke="#293E72" stroke-width="0.3"/>
<path d="M44.3594 13.397L44.2148 13.4028L44.1758 13.4038H44.167C43.8896 13.3978 43.6134 13.397 43.335 13.397L42.5586 13.3979L41.0996 13.3921C40.822 13.3921 40.5451 13.3949 40.2686 13.4038L40.2568 13.4048V13.4038L40.2207 13.4028L40.0771 13.396V13.1821C40.1006 12.0202 41.0524 11.0767 42.2139 11.0767L42.4316 11.0894C43.5031 11.2037 44.3488 12.12 44.3594 13.2241V13.397Z" stroke="#293E72" stroke-width="0.3"/>
<path d="M20.2617 34.3345L20.2627 34.3354C20.4328 34.3866 20.5635 34.4772 20.6475 34.6118C20.7294 34.7433 20.7572 34.9 20.7539 35.0649C20.7422 35.6586 20.7465 36.2502 20.748 36.8462C20.8786 36.7186 21.0087 36.5904 21.1387 36.4604C21.2871 36.3121 21.4362 36.1623 21.5879 36.0151C21.7001 35.9056 21.8325 35.823 21.9834 35.7974C22.1379 35.7712 22.2935 35.8082 22.4424 35.9058C22.5831 35.9979 22.6772 36.1334 22.71 36.2925C22.7423 36.4498 22.7126 36.6193 22.6309 36.7827C22.4916 37.0613 22.3986 37.3313 22.4053 37.6216L22.4121 37.6919C22.4227 37.7465 22.4418 37.7616 22.4443 37.7632C22.4449 37.7635 22.4797 37.7824 22.5781 37.7261L22.835 37.5562C22.9194 37.4956 23.0048 37.4318 23.0977 37.3667C23.6413 36.9853 24.2509 36.8023 24.9023 36.7788H24.9033C25.3885 36.7622 25.8736 36.768 26.3535 36.771C26.5828 36.7726 26.7809 36.8197 26.9248 36.9312C27.0751 37.0475 27.1444 37.2169 27.1465 37.4126C27.1492 37.6111 27.0839 37.7833 26.9326 37.8999C26.7894 38.0101 26.5915 38.0534 26.3643 38.0542C26.0368 38.0542 25.7077 38.0557 25.3789 38.0542C24.756 38.0517 24.1948 38.1805 23.6924 38.5171L23.4805 38.6743C23.1897 38.9118 22.8745 39.0405 22.5576 39.0591C22.2407 39.0776 21.932 38.9856 21.6543 38.7983C21.4412 38.6549 21.2999 38.4622 21.1885 38.2339C20.9898 38.4388 20.8082 38.628 20.627 38.814C20.5265 38.917 20.4086 38.9967 20.2725 39.0308C20.134 39.0654 19.9899 39.0495 19.8457 38.9839C19.7043 38.9205 19.6031 38.8247 19.541 38.7026C19.4807 38.5838 19.4623 38.4501 19.4648 38.3179L19.4668 38.1274C19.4667 38.1213 19.4659 38.1151 19.4658 38.1089C19.4001 38.2594 19.3356 38.4109 19.2686 38.561C19.1805 38.7584 19.0595 38.9131 18.8994 38.9937C18.7337 39.0769 18.5513 39.0683 18.373 38.9897C18.2029 38.9142 18.0816 38.7824 18.0303 38.6108C17.98 38.4427 18.0022 38.2527 18.083 38.062V38.061C18.5467 36.9686 19.0151 35.8775 19.4863 34.7896C19.6296 34.4574 19.9322 34.2376 20.2617 34.3345Z" fill="#293E72" stroke="#293E72" stroke-width="0.3"/>
<path d="M36.4395 29.1465C36.7498 29.1465 37.0078 29.287 37.1494 29.5068C37.2918 29.728 37.3068 30.0149 37.1602 30.2793C37.0824 30.42 36.9782 30.5151 36.8525 30.5723C36.7608 30.6139 36.6631 30.6336 36.5654 30.6406L36.4678 30.6436C34.7352 30.6376 28.1053 30.6406 26.3721 30.6406C24.6632 30.6406 20.5517 30.6421 18.8428 30.6406C18.5998 30.6398 18.3881 30.5808 18.2354 30.4492C18.0791 30.3145 18.005 30.1213 18.0059 29.8984C18.0068 29.6774 18.0878 29.4842 18.2432 29.3477C18.3965 29.2129 18.6079 29.1465 18.8496 29.1465C22.2798 29.1435 33.0093 29.1435 36.4395 29.1465Z" fill="#293E72" stroke="#293E72" stroke-width="0.3"/>
<path d="M36.4395 26.353C36.7498 26.353 37.0078 26.4935 37.1494 26.7134C37.2918 26.9345 37.3068 27.2215 37.1602 27.4858C37.0824 27.6266 36.9782 27.7217 36.8525 27.7788C36.7608 27.8205 36.6631 27.8402 36.5654 27.8472L36.4678 27.8501C34.7352 27.8441 28.1053 27.8472 26.3721 27.8472C24.6632 27.8472 20.5517 27.8487 18.8428 27.8472C18.5998 27.8463 18.3881 27.7874 18.2354 27.6558C18.0791 27.5211 18.005 27.3279 18.0059 27.105C18.0068 26.8839 18.0878 26.6907 18.2432 26.5542C18.3965 26.4194 18.6079 26.353 18.8496 26.353C22.2798 26.35 33.0093 26.35 36.4395 26.353Z" fill="#293E72" stroke="#293E72" stroke-width="0.3"/>
<path d="M36.4365 23.561C36.7474 23.5611 37.0049 23.702 37.1465 23.9214C37.2888 24.1421 37.3046 24.4293 37.1582 24.6919C37.0804 24.8322 36.976 24.9269 36.8506 24.9839C36.7589 25.0256 36.6611 25.0443 36.5635 25.0513L36.4658 25.0552C34.7332 25.0492 28.1034 25.0522 26.3701 25.0522C24.6613 25.0522 20.5498 25.0537 18.8408 25.0522C18.5978 25.0514 18.3861 24.9924 18.2334 24.8608C18.0771 24.7261 18.003 24.533 18.0039 24.3101C18.0049 24.0889 18.086 23.8954 18.2412 23.7593C18.3944 23.6251 18.6056 23.5606 18.8457 23.562V23.561C22.2756 23.558 33.0066 23.558 36.4365 23.561Z" fill="#293E72" stroke="#293E72" stroke-width="0.3"/>
<path d="M28.875 31.9404C29.1584 31.9413 29.4019 32.0524 29.5518 32.2412C29.7027 32.4316 29.7475 32.6866 29.6592 32.9443C29.5944 33.1333 29.4847 33.2641 29.3379 33.3428C29.1966 33.4184 29.0347 33.4383 28.877 33.4375C27.1559 33.43 20.5567 33.4341 18.8467 33.4326C18.602 33.4326 18.3883 33.3739 18.2344 33.2432C18.0769 33.1093 18.0012 32.9172 18.0029 32.6953C18.0047 32.4744 18.0872 32.2794 18.2412 32.1416C18.3938 32.005 18.6044 31.9355 18.8438 31.9355C22.2735 31.934 25.4452 31.9359 28.875 31.9404Z" fill="#293E72" stroke="#293E72" stroke-width="0.3"/>
<path d="M24.3936 12.9766C24.8063 12.9768 25.1436 13.3148 25.1436 13.7275C25.1433 14.1399 24.8079 14.4773 24.3936 14.4775H18.083C17.6705 14.4775 17.3323 14.142 17.332 13.7275C17.332 13.3138 17.6675 12.9748 18.083 12.9766H24.3936Z" fill="#293E72" stroke="#293E72" stroke-width="0.3"/>
<path d="M21.3691 15.3696C21.7818 15.3696 22.1191 15.7059 22.1191 16.1206C22.1189 16.5343 21.7826 16.8712 21.3691 16.8696L18.084 16.8706C17.6712 16.8706 17.3332 16.5333 17.333 16.1206C17.333 15.7079 17.6693 15.3696 18.084 15.3696H21.3691Z" fill="#293E72" stroke="#293E72" stroke-width="0.3"/>
<path d="M42.165 9.85449C43.7024 9.85768 44.9888 10.7948 45.4316 12.2441L45.4756 12.4033C45.5395 12.6689 45.5598 12.9304 45.5684 13.1807L45.5752 13.4756L45.584 13.8047V13.9346C45.5763 14.0796 45.5369 14.2643 45.3936 14.415V14.416C45.2035 14.614 44.9433 14.6318 44.7793 14.6318H44.7783C44.2106 14.6258 43.6573 14.626 43.1035 14.626H42.2266C41.6091 14.626 40.9915 14.6248 40.373 14.6182C40.379 20.7621 40.3794 26.906 40.3809 33.0498L40.3818 42.2852C40.3817 43.275 40.0394 44.1753 39.4082 44.8145C38.7736 45.4569 37.8774 45.806 36.8867 45.8076C31.838 45.8106 26.7884 45.8105 21.7412 45.8105H18.2432L13.0107 45.8047C11.4798 45.8015 10.1328 44.7924 9.73926 43.3447C9.63306 42.9548 9.62752 42.5732 9.62305 42.2256V42.2246C9.62154 42.0936 9.62054 41.9652 9.61328 41.8389C9.60539 41.6969 9.60727 41.4456 9.79492 41.2461V41.2451C9.982 41.0481 10.2393 41.0303 10.4004 41.0303H10.4014C10.8014 41.0333 11.1911 41.0342 11.5791 41.0342L12.9844 41.0332C13.5967 41.0332 14.2094 41.0361 14.8223 41.0449L14.8232 41.0439C14.8142 37.2945 14.8164 33.545 14.8164 29.7959V13.3535C14.8172 12.331 15.1764 11.4531 15.8008 10.8311C16.4251 10.2092 17.3053 9.85163 18.3311 9.85156L34.6836 9.84961C37.1773 9.84961 39.6714 9.85149 42.165 9.85449ZM11.1416 42.5498C11.142 42.5557 11.1421 42.562 11.1426 42.5684C11.2135 43.5389 12.0086 44.2746 12.9951 44.2773L17.917 44.2852L34.2207 44.2832C33.8681 43.7504 33.6831 43.1784 33.6592 42.5615C32.8379 42.5589 32.0203 42.5596 31.2041 42.5596L21.7734 42.5605C18.234 42.5605 14.6943 42.5578 11.1562 42.5488C11.1512 42.5488 11.1463 42.5498 11.1416 42.5498ZM18.2275 11.375C17.1309 11.3766 16.3418 12.1658 16.3418 13.2588V40.8223C16.3418 40.8964 16.3414 40.972 16.3428 41.0371C16.4087 41.0343 16.4859 41.0332 16.5537 41.0332H22.0117C26.0927 41.0332 30.1721 41.0324 34.2529 41.0234H34.2617C34.4836 41.0234 34.7919 41.0454 35.0029 41.2773L35.0732 41.3682C35.2142 41.5866 35.2051 41.8452 35.1904 42C35.1584 42.3435 35.1711 42.5961 35.2246 42.8213C35.447 43.7498 36.2999 44.3742 37.1953 44.2725H37.1963C38.1387 44.1753 38.85 43.3885 38.8516 42.4424C38.8561 39.2978 38.8545 36.1556 38.8545 33.0107L38.8535 28.9658L38.8545 23.7295C38.8545 20.2398 38.8565 16.7488 38.8535 13.2578V13.2568C38.8536 12.5645 39.0366 11.9488 39.415 11.373L18.2275 11.375ZM42.0293 11.3867C41.1468 11.4767 40.4448 12.2036 40.3838 13.1025C40.6231 13.0963 40.8621 13.0918 41.1006 13.0918H41.1016L42.5576 13.0977L43.333 13.0967C43.5718 13.0967 43.8105 13.0985 44.0498 13.1025C43.9773 12.1439 43.1793 11.3811 42.2139 11.377L42.0293 11.3867Z" fill="#293E72" stroke="#293E72" stroke-width="0.3"/>
</svg>
