<svg width="47" height="47" viewBox="0 0 47 47" fill="none" xmlns="http://www.w3.org/2000/svg">
<circle cx="23.2559" cy="23.2559" r="23.2559" fill="#293E72"/>
<path d="M22.5802 31.9639C21.8002 31.9639 21.0288 31.8772 20.2662 31.7039C19.5035 31.5305 18.7928 31.2619 18.1342 30.8979C17.4928 30.5339 16.9468 30.0485 16.4962 29.4419C16.0628 28.8352 15.7855 28.0985 15.6642 27.2319H18.4462C18.6368 27.7865 18.9488 28.2285 19.3822 28.5579C19.8328 28.8699 20.3355 29.0952 20.8902 29.2339C21.4622 29.3725 22.0342 29.4419 22.6062 29.4419C22.9875 29.4419 23.3948 29.4072 23.8282 29.3379C24.2788 29.2685 24.6948 29.1299 25.0762 28.9219C25.4748 28.7139 25.7955 28.4105 26.0382 28.0119C26.2808 27.6132 26.4022 27.1019 26.4022 26.4779C26.4022 25.8712 26.2895 25.3859 26.0642 25.0219C25.8388 24.6405 25.5355 24.3459 25.1542 24.1379C24.7902 23.9299 24.3742 23.7912 23.9062 23.7219C23.4382 23.6525 22.9528 23.6179 22.4502 23.6179H20.5782V21.2259H21.7482C22.3028 21.2259 22.8228 21.1739 23.3082 21.0699C23.7935 20.9485 24.2095 20.7839 24.5562 20.5759C24.9202 20.3505 25.2062 20.0645 25.4142 19.7179C25.6222 19.3539 25.7262 18.9119 25.7262 18.3919C25.7262 17.6639 25.5702 17.1092 25.2582 16.7279C24.9462 16.3292 24.5388 16.0519 24.0362 15.8959C23.5335 15.7399 22.9875 15.6619 22.3982 15.6619C21.9128 15.6619 21.4275 15.7399 20.9422 15.8959C20.4742 16.0345 20.0582 16.2599 19.6942 16.5719C19.3302 16.8839 19.0875 17.2825 18.9662 17.7679H16.2622C16.3662 16.9532 16.6088 16.2599 16.9902 15.6879C17.3888 15.0985 17.8742 14.6132 18.4462 14.2319C19.0355 13.8505 19.6855 13.5819 20.3962 13.4259C21.1068 13.2525 21.8435 13.1659 22.6062 13.1659C23.3862 13.1659 24.1228 13.2525 24.8162 13.4259C25.5268 13.5819 26.1508 13.8505 26.6882 14.2319C27.2255 14.6132 27.6502 15.1159 27.9622 15.7399C28.2915 16.3465 28.4562 17.0919 28.4562 17.9759C28.4562 18.5825 28.3522 19.1459 28.1442 19.6659C27.9535 20.1859 27.6588 20.6452 27.2602 21.0439C26.8788 21.4252 26.4108 21.7459 25.8562 22.0059C26.6015 22.1619 27.2255 22.4479 27.7282 22.8639C28.2308 23.2799 28.6035 23.7912 28.8462 24.3979C29.1062 24.9872 29.2362 25.6459 29.2362 26.3739C29.2362 27.5179 29.0282 28.4539 28.6122 29.1819C28.1962 29.9099 27.6502 30.4732 26.9742 30.8719C26.3155 31.2705 25.5962 31.5565 24.8162 31.7299C24.0362 31.8859 23.2908 31.9639 22.5802 31.9639Z" fill="white"/>
</svg>
