<svg width="47" height="47" viewBox="0 0 47 47" fill="none" xmlns="http://www.w3.org/2000/svg">
<circle cx="23.2559" cy="23.2559" r="23.2559" fill="#293E72"/>
<path d="M16.62 31.7559V29.4679L21.794 25.0479C22.2273 24.6839 22.704 24.2765 23.224 23.8259C23.7613 23.3752 24.2726 22.8899 24.758 22.3699C25.2606 21.8499 25.668 21.2952 25.98 20.7059C26.3093 20.1165 26.474 19.5012 26.474 18.8599C26.474 17.8719 26.1706 17.1005 25.564 16.5459C24.9746 15.9912 24.1686 15.7139 23.146 15.7139C22.2793 15.7139 21.5426 15.8959 20.936 16.2599C20.3466 16.6239 19.9566 17.1352 19.766 17.7939H16.958C17.114 16.7365 17.504 15.8699 18.128 15.1939C18.752 14.5179 19.5146 14.0152 20.416 13.6859C21.3173 13.3392 22.262 13.1659 23.25 13.1659C24.394 13.1659 25.4166 13.3739 26.318 13.7899C27.2193 14.2059 27.93 14.8212 28.45 15.6359C28.97 16.4332 29.23 17.4125 29.23 18.5739C29.23 19.6659 29.022 20.6365 28.606 21.4859C28.19 22.3352 27.6353 23.1065 26.942 23.7999C26.266 24.4932 25.5293 25.1692 24.732 25.8279L20.65 29.2339H29.36V31.7559H16.62Z" fill="white"/>
</svg>
