<svg width="47" height="47" viewBox="0 0 47 47" fill="none" xmlns="http://www.w3.org/2000/svg">
<circle cx="23.2559" cy="23.2559" r="23.2559" fill="#293E72"/>
<path d="M23.2271 31.9899C22.4298 31.9899 21.6758 31.8945 20.9651 31.7039C20.2545 31.5132 19.6045 31.2272 19.0151 30.8459C18.4431 30.4472 17.9578 29.9532 17.5591 29.3639C17.1778 28.7572 16.9091 28.0379 16.7531 27.2059H19.5091C19.6651 27.6565 19.9251 28.0465 20.2891 28.3759C20.6705 28.7052 21.1038 28.9652 21.5891 29.1559C22.0918 29.3465 22.6031 29.4419 23.1231 29.4419C23.9031 29.4419 24.5878 29.3119 25.1771 29.0519C25.7838 28.7745 26.2605 28.3759 26.6071 27.8559C26.9538 27.3359 27.1271 26.6685 27.1271 25.8539C27.1271 24.7272 26.7805 23.8519 26.0871 23.2279C25.3938 22.6039 24.4838 22.2919 23.3571 22.2919C22.6811 22.2919 22.0485 22.4132 21.4591 22.6559C20.8871 22.8812 20.3585 23.2019 19.8731 23.6179H17.2731L17.9231 13.3739H29.3111V15.8959H20.4451L20.0291 20.9919C20.5145 20.6105 21.0951 20.3159 21.7711 20.1079C22.4645 19.8999 23.2531 19.8045 24.1371 19.8219C25.3158 19.8219 26.3385 20.0645 27.2051 20.5499C28.0891 21.0352 28.7651 21.7199 29.2331 22.6039C29.7185 23.4705 29.9611 24.4932 29.9611 25.6719C29.9611 27.0065 29.6578 28.1419 29.0511 29.0779C28.4618 30.0139 27.6558 30.7332 26.6331 31.2359C25.6278 31.7385 24.4925 31.9899 23.2271 31.9899Z" fill="white"/>
</svg>
