<svg width="69" height="69" viewBox="0 0 69 69" fill="none" xmlns="http://www.w3.org/2000/svg">
<circle cx="34.2873" cy="34.2873" r="34.2873" fill="#1F375B"/>
<path d="M17.0422 51.7236L19.3996 43.0609C17.8462 40.3981 17.0301 37.3694 17.0352 34.2866C17.0352 24.6561 24.8417 16.8496 34.4721 16.8496C44.1026 16.8496 51.9091 24.6561 51.9091 34.2866C51.9091 43.917 44.1026 51.7236 34.4721 51.7236C31.3907 51.7286 28.3634 50.9131 25.7014 49.3608L17.0422 51.7236ZM28.1792 26.1052C27.954 26.1191 27.7339 26.1784 27.5322 26.2795C27.3431 26.3866 27.1704 26.5205 27.0196 26.6771C26.8103 26.8741 26.6918 27.045 26.5645 27.2107C25.92 28.0494 25.5734 29.0789 25.5793 30.1366C25.5828 30.991 25.806 31.8227 26.1547 32.6004C26.8679 34.1732 28.0414 35.8385 29.5915 37.3816C29.9647 37.7531 30.3291 38.1262 30.7215 38.4732C32.6454 40.1672 34.9382 41.3887 37.4172 42.0408L38.4094 42.1925C38.732 42.2099 39.0546 42.1855 39.3789 42.1698C39.8868 42.1437 40.3826 42.0061 40.8314 41.767C41.1209 41.6136 41.2569 41.5369 41.4992 41.3834C41.4992 41.3834 41.5742 41.3346 41.7172 41.2265C41.9526 41.0521 42.0973 40.9283 42.2926 40.7243C42.4373 40.5744 42.5629 40.3982 42.6588 40.1977C42.7948 39.9135 42.9308 39.3712 42.9866 38.9196C43.0285 38.5743 43.0163 38.386 43.011 38.2692C43.004 38.0826 42.8489 37.8891 42.6797 37.8071L41.6649 37.352C41.6649 37.352 40.1479 36.6911 39.222 36.2692C39.1243 36.2266 39.0197 36.2024 38.9133 36.1977C38.7941 36.1855 38.6736 36.1989 38.5599 36.2371C38.4462 36.2753 38.3419 36.3373 38.2542 36.4191V36.4156C38.2455 36.4156 38.1287 36.515 36.868 38.0425C36.7956 38.1398 36.696 38.2132 36.5817 38.2537C36.4674 38.2939 36.3436 38.2994 36.2263 38.2692C36.1128 38.2388 36.0014 38.2003 35.8932 38.1541C35.677 38.0634 35.6021 38.0286 35.4538 37.964L35.4451 37.9606C34.4475 37.525 33.5239 36.9367 32.7075 36.2169C32.4878 36.025 32.2838 35.8158 32.0746 35.6135C31.3886 34.9565 30.7907 34.2133 30.296 33.4025L30.1931 33.2369C30.1192 33.1256 30.0595 33.0055 30.0153 32.8794C29.949 32.6231 30.1216 32.4173 30.1216 32.4173C30.1216 32.4173 30.5453 31.9535 30.7424 31.7024C30.9064 31.4937 31.0595 31.2766 31.201 31.052C31.4067 30.7207 31.4712 30.3807 31.3631 30.1174C30.8749 28.9247 30.3692 27.7373 29.8496 26.5585C29.7467 26.3249 29.4416 26.1575 29.1643 26.1243C29.0702 26.1139 28.976 26.1034 28.8819 26.0964C28.6477 26.0848 28.413 26.0889 28.1792 26.1052Z" fill="white"/>
</svg>
