<svg width="45" height="45" viewBox="0 0 45 45" fill="none" xmlns="http://www.w3.org/2000/svg">
<path d="M22.5 0.5C34.6503 0.5 44.5 10.3497 44.5 22.5C44.5 34.6503 34.6503 44.5 22.5 44.5C10.3497 44.5 0.5 34.6503 0.5 22.5C0.5 10.3497 10.3497 0.5 22.5 0.5Z" stroke="#657191"/>
<path d="M27.492 11.6152H17.508C14.2587 11.6152 11.6152 14.2587 11.6152 17.508V27.4921C11.6152 30.7413 14.2587 33.3848 17.508 33.3848H27.4921C30.7413 33.3848 33.3848 30.7413 33.3848 27.4921V17.508C33.3848 14.2587 30.7413 11.6152 27.492 11.6152V11.6152ZM22.5 28.4524C19.2178 28.4524 16.5476 25.7822 16.5476 22.5C16.5476 19.2178 19.2178 16.5476 22.5 16.5476C25.7822 16.5476 28.4524 19.2178 28.4524 22.5C28.4524 25.7822 25.7822 28.4524 22.5 28.4524ZM28.5948 17.9513C27.6248 17.9513 26.8359 17.1624 26.8359 16.1925C26.8359 15.2225 27.6248 14.4334 28.5948 14.4334C29.5647 14.4334 30.3538 15.2225 30.3538 16.1925C30.3538 17.1624 29.5647 17.9513 28.5948 17.9513Z" fill="#293E72"/>
<path d="M22.5004 17.8231C19.9221 17.8231 17.8242 19.9208 17.8242 22.4993C17.8242 25.0776 19.9221 27.1755 22.5004 27.1755C25.079 27.1755 27.1767 25.0776 27.1767 22.4993C27.1767 19.9208 25.079 17.8231 22.5004 17.8231Z" fill="#293E72"/>
<path d="M28.5862 15.7095C28.3201 15.7095 28.1035 15.9261 28.1035 16.1921C28.1035 16.4582 28.3201 16.6748 28.5862 16.6748C28.8524 16.6748 29.069 16.4584 29.069 16.1921C29.069 15.9259 28.8524 15.7095 28.5862 15.7095Z" fill="#293E72"/>
</svg>
