<svg width="206" height="62" viewBox="0 0 206 62" fill="none" xmlns="http://www.w3.org/2000/svg">
<path d="M79.2344 34.6162H86.4717C88.1768 34.6162 89.7682 35.033 91.2081 35.8666C92.648 36.7002 93.7848 37.7991 94.6184 39.239C95.452 40.6789 95.8688 42.2324 95.8688 43.9376C95.8688 45.6427 95.452 47.2341 94.6184 48.6361C93.7848 50.0381 92.648 51.1748 91.2081 52.0085C89.7682 52.8421 88.1768 53.2589 86.4717 53.2589H79.2344V34.6162ZM89.7304 49.6592C90.7155 49.0908 91.5113 48.2951 92.0417 47.272C92.6101 46.2489 92.8754 45.1501 92.8754 43.9376C92.8754 42.725 92.5722 41.6262 92.0417 40.6031C91.4734 39.58 90.7155 38.7843 89.7304 38.2159C88.7452 37.6475 87.6842 37.3444 86.4717 37.3444H82.1899V50.5307H86.4717C87.6463 50.5307 88.7452 50.2654 89.7304 49.6592Z" fill="#54565A"/>
<path d="M98.3701 53.2589V34.6162H101.326V53.2589H98.3701Z" fill="#54565A"/>
<path d="M109.851 34.6162H124.136V37.496H118.49V53.2968H115.534V37.496H109.851V34.6162Z" fill="#EA0029"/>
<path d="M124.781 39.0877C125.614 37.6099 126.789 36.4732 128.267 35.6396C129.744 34.806 131.374 34.3892 133.117 34.3892C134.898 34.3892 136.527 34.806 138.005 35.6396C139.483 36.4732 140.657 37.6099 141.491 39.0877C142.325 40.5655 142.779 42.1569 142.779 43.9379C142.779 45.7188 142.362 47.3102 141.491 48.788C140.657 50.2657 139.483 51.4025 138.005 52.2361C136.527 53.0697 134.898 53.4865 133.117 53.4865C131.336 53.4865 129.707 53.0697 128.267 52.2361C126.789 51.4025 125.614 50.2657 124.781 48.788C123.947 47.3102 123.53 45.7188 123.53 43.9379C123.53 42.1569 123.947 40.5655 124.781 39.0877ZM127.357 47.3102C127.964 48.3333 128.759 49.129 129.782 49.7353C130.805 50.3036 131.942 50.6068 133.155 50.6068C134.367 50.6068 135.504 50.3036 136.527 49.7353C137.55 49.1669 138.346 48.3333 138.952 47.3102C139.558 46.2871 139.824 45.1504 139.824 43.9379C139.824 42.7253 139.521 41.5886 138.952 40.5655C138.346 39.5424 137.55 38.7467 136.527 38.1404C135.504 37.5342 134.367 37.2689 133.155 37.2689C131.942 37.2689 130.805 37.5721 129.782 38.1404C128.759 38.7467 127.964 39.5424 127.357 40.5655C126.751 41.5886 126.486 42.7253 126.486 43.9379C126.486 45.1504 126.751 46.2871 127.357 47.3102Z" fill="#EA0029"/>
<path d="M145.279 53.2589V34.6162H152.062C153.123 34.6162 154.108 34.8815 154.98 35.374C155.851 35.8666 156.533 36.5487 157.064 37.3823C157.556 38.2538 157.821 39.2011 157.821 40.2621C157.821 41.2094 157.594 42.043 157.139 42.8387C156.685 43.5965 156.116 44.2028 155.434 44.6575C154.752 45.0743 154.07 45.3395 153.426 45.3395H153.047C153.426 45.3774 153.767 45.4532 153.994 45.6048C154.222 45.7185 154.449 45.9458 154.639 46.1732L159.905 53.2968H157.594C157.215 53.2968 156.836 53.221 156.533 53.1073C156.23 52.9936 155.927 52.7284 155.699 52.3874L150.925 45.9458H148.235V53.2968L145.279 53.2589ZM148.235 43.066H151.948C152.479 43.066 153.009 42.9524 153.464 42.6871C153.919 42.4219 154.26 42.1188 154.525 41.6641C154.79 41.2472 154.904 40.7546 154.904 40.2242C154.904 39.6937 154.79 39.2011 154.525 38.7843C154.26 38.3675 153.919 38.0265 153.464 37.7991C153.009 37.5718 152.517 37.4581 151.948 37.4581H148.273L148.235 43.066Z" fill="#54565A"/>
<path d="M161.384 53.2589V34.6162H164.339V53.2589H161.384Z" fill="#54565A"/>
<path d="M183.626 34.6165V53.2592H181.39C181.201 53.2592 181.049 53.2213 180.86 53.0697C180.67 52.956 180.518 52.7666 180.367 52.5771L170.742 38.4436H170.667C170.932 39.0498 171.046 39.694 171.046 40.376V53.2213H168.128V34.5786H170.439C170.818 34.5786 171.159 34.6544 171.424 34.7681C171.69 34.8817 171.955 35.147 172.182 35.488L181.163 48.6743H181.201C180.897 47.9923 180.746 47.3102 180.746 46.6281V34.5786L183.626 34.6165Z" fill="#54565A"/>
<path d="M187.416 39.0877C188.249 37.6099 189.424 36.4732 190.902 35.6396C192.38 34.806 194.009 34.3892 195.752 34.3892C197.533 34.3892 199.162 34.806 200.64 35.6396C202.118 36.4732 203.292 37.6099 204.126 39.0877C204.96 40.5655 205.414 42.1569 205.414 43.9379C205.414 45.7188 204.998 47.3102 204.126 48.788C203.292 50.2657 202.118 51.4025 200.64 52.2361C199.162 53.0697 197.533 53.4865 195.752 53.4865C193.971 53.4865 192.342 53.0697 190.902 52.2361C189.462 51.4025 188.249 50.2657 187.416 48.788C186.582 47.3102 186.165 45.7188 186.165 43.9379C186.128 42.1569 186.544 40.5655 187.416 39.0877ZM189.955 47.3102C190.561 48.3333 191.357 49.129 192.38 49.7353C193.403 50.3036 194.539 50.6068 195.752 50.6068C196.965 50.6068 198.101 50.3036 199.124 49.7353C200.147 49.1669 200.943 48.3333 201.549 47.3102C202.156 46.2871 202.421 45.1504 202.421 43.9379C202.421 42.7253 202.118 41.5886 201.549 40.5655C200.943 39.5424 200.147 38.7467 199.124 38.1404C198.101 37.5342 196.965 37.2689 195.752 37.2689C194.539 37.2689 193.403 37.5721 192.38 38.1404C191.357 38.7467 190.561 39.5424 189.955 40.5655C189.348 41.5886 189.083 42.7253 189.083 43.9379C189.083 45.1504 189.386 46.2871 189.955 47.3102Z" fill="#54565A"/>
<path d="M82.4171 22.9079C82.7581 23.5521 83.2507 24.0068 83.8948 24.3857C84.539 24.7267 85.2589 24.9162 86.0926 24.9162C86.9262 24.9162 87.6461 24.7267 88.2903 24.3857C88.9344 24.0447 89.427 23.5521 89.768 22.9079C90.1091 22.2638 90.2985 21.5817 90.2985 20.7481V10.4795H92.9509V20.7481C92.9509 22.0743 92.6478 23.249 92.1173 24.272C91.549 25.2951 90.7532 26.0908 89.7302 26.6592C88.7071 27.2276 87.4945 27.4928 86.1683 27.4928C84.8421 27.4928 83.6296 27.1897 82.6065 26.6592C81.5835 26.0908 80.7498 25.2951 80.2194 24.272C79.651 23.249 79.3857 22.0743 79.3857 20.7481V10.4795H82.0382V20.7481C81.8866 21.5817 82.076 22.3017 82.4171 22.9079Z" fill="#EA0029"/>
<path d="M109.775 10.4795V27.3413H107.767C107.615 27.3413 107.426 27.3034 107.312 27.1897C107.16 27.076 107.009 26.9245 106.895 26.7729L98.218 14.0034H98.1044C98.3317 14.5718 98.4454 15.1402 98.4454 15.7843V27.3792H95.793V10.5174H97.877C98.218 10.5174 98.5212 10.5553 98.7485 10.7068C98.9759 10.8205 99.2032 11.0479 99.4306 11.351L107.539 23.249H107.577C107.274 22.6427 107.16 21.9986 107.16 21.3923V10.5174L109.775 10.4795Z" fill="#EA0029"/>
<path d="M113.222 27.3413V10.4795H115.874V27.3413H113.222Z" fill="#EA0029"/>
<path d="M133.911 10.4795L126.598 27.3413H124.249L116.936 10.4795H118.716C119.095 10.4795 119.399 10.5553 119.664 10.7447C119.929 10.9342 120.118 11.1615 120.27 11.5026L124.893 22.2259C125.158 22.8322 125.31 23.5142 125.385 24.3478H125.461C125.499 23.5521 125.689 22.8322 125.954 22.2259L130.577 11.5026C130.728 11.1994 130.918 10.9342 131.183 10.7826C131.448 10.5932 131.751 10.5174 132.13 10.5174L133.911 10.4795Z" fill="#54565A"/>
<path d="M134.973 27.3413V10.4795H145.582V13.094H137.625V17.4515H144.105V20.0282H137.625V24.7646H145.582V27.3792L134.973 27.3413Z" fill="#54565A"/>
<path d="M147.969 27.3413V10.4795H154.107C155.054 10.4795 155.964 10.7068 156.76 11.1615C157.555 11.6162 158.199 12.2225 158.654 12.9803C159.109 13.7382 159.336 14.6097 159.336 15.5949C159.336 16.4285 159.147 17.2242 158.73 17.9063C158.313 18.5883 157.821 19.1567 157.176 19.5356C156.57 19.9145 155.964 20.1419 155.358 20.1419H155.017C155.358 20.1797 155.661 20.2555 155.85 20.3692C156.078 20.4829 156.267 20.6723 156.419 20.8618L161.155 27.3034H159.071C158.692 27.3034 158.389 27.2655 158.124 27.1139C157.821 27.0002 157.593 26.7729 157.366 26.4698L153.046 20.7481H150.621V27.3792L147.969 27.3413ZM150.659 18.0957H153.994C154.486 18.0957 154.941 17.982 155.358 17.7547C155.774 17.5273 156.078 17.2242 156.305 16.8453C156.532 16.4664 156.684 16.0496 156.684 15.557C156.684 15.0644 156.57 14.6476 156.305 14.2687C156.078 13.8897 155.737 13.5866 155.358 13.3972C154.941 13.1698 154.486 13.094 153.994 13.094H150.659V18.0957Z" fill="#54565A"/>
<path d="M163.504 26.8484C162.557 26.3937 161.723 25.7496 161.041 24.9917L161.609 24.0066C161.723 23.8171 161.875 23.7034 162.026 23.6276C162.216 23.5519 162.405 23.4761 162.632 23.4761C162.936 23.4761 163.201 23.5519 163.466 23.7413C163.921 24.0823 164.451 24.3476 165.02 24.5749C165.588 24.8023 166.118 24.9539 166.497 24.9539C167.407 24.9539 168.165 24.7265 168.733 24.3097C169.301 23.8929 169.567 23.2487 169.567 22.453C169.567 21.8846 169.339 21.392 168.847 20.9373C168.354 20.5205 167.596 20.0658 166.535 19.649C164.906 19.0428 163.731 18.3607 162.936 17.6029C162.178 16.8451 161.761 15.8978 161.761 14.8368C161.761 13.9653 161.988 13.1696 162.405 12.4875C162.822 11.8055 163.428 11.275 164.224 10.8582C164.982 10.4793 165.891 10.2898 166.876 10.2898C167.672 10.2898 168.468 10.4414 169.301 10.7445C170.135 11.0476 170.817 11.5023 171.348 12.0707L170.893 12.9043C170.741 13.1696 170.552 13.359 170.362 13.4727C170.135 13.6243 169.908 13.6621 169.68 13.6621C169.491 13.6621 169.301 13.6243 169.074 13.5106C168.733 13.2832 168.354 13.1317 167.937 13.018C167.52 12.9043 167.179 12.8664 166.876 12.8664C166.156 12.8664 165.55 13.0559 165.095 13.3969C164.641 13.7758 164.413 14.2305 164.413 14.8368C164.413 15.2915 164.641 15.7083 165.095 16.0872C165.55 16.4661 166.27 16.8072 167.255 17.1482C168.922 17.6787 170.173 18.3986 171.007 19.2701C171.84 20.1416 172.219 21.2026 172.219 22.4151C172.219 23.4003 171.954 24.3097 171.461 25.1054C170.969 25.8633 170.287 26.5074 169.415 26.9242C168.544 27.341 167.52 27.5684 166.384 27.5684C165.436 27.5684 164.451 27.3031 163.504 26.8484Z" fill="#54565A"/>
<path d="M174.53 27.3413V10.4795H177.183V27.3413H174.53Z" fill="#54565A"/>
<path d="M178.736 10.4795H191.619V13.094H186.542V27.3413H183.89V13.094H178.774L178.736 10.4795Z" fill="#54565A"/>
<path d="M205.374 27.3413H203.555C203.214 27.3413 202.911 27.2655 202.608 27.076C202.343 26.8866 202.116 26.6592 202.002 26.3182L200.827 23.6658H192.756L191.582 26.3182C191.468 26.6213 191.241 26.8866 190.975 27.076C190.71 27.2655 190.407 27.3413 190.066 27.3413H188.285L195.636 10.4795H197.985L205.374 27.3413ZM199.804 21.2407L197.341 15.557C197.152 15.1402 197.038 14.7991 196.962 14.5718C196.887 14.3444 196.887 14.0792 196.887 13.814H196.773C196.773 14.0792 196.735 14.3444 196.697 14.5718C196.659 14.7991 196.546 15.1402 196.356 15.557L193.893 21.2407H199.804Z" fill="#54565A"/>
<path d="M192.908 4.49243C193.173 5.21237 193.78 6.46278 194.121 7.22062C194.348 7.71321 194.841 8.39526 195.561 8.39526C196.508 8.39526 196.811 8.39526 197.114 8.39526C196.925 7.97845 196.243 6.27333 195.788 5.47761C195.371 4.68189 194.689 4.49243 194.197 4.49243C193.704 4.45454 192.908 4.49243 192.908 4.49243Z" fill="#54565A"/>
<path d="M33.4444 56.0986C33.3489 55.8599 33.2057 55.645 33.0386 55.5257C32.8715 55.4063 32.6805 55.3347 32.4418 55.3586C32.2031 55.3586 32.036 55.4541 31.8689 55.5973C31.7256 55.7405 31.6063 55.9554 31.5347 56.218C31.4631 56.4806 31.4392 56.7909 31.4631 57.149C31.4869 57.507 31.5347 57.8174 31.654 58.08C31.7495 58.3187 31.8927 58.5335 32.0599 58.6529C32.227 58.7723 32.4179 58.8439 32.6566 58.82C32.8954 58.82 33.0625 58.7245 33.2296 58.5813C33.3728 58.438 33.4922 58.2232 33.5638 57.9606C33.6354 57.698 33.6593 57.3877 33.6354 57.0296C33.6115 56.6477 33.5638 56.3373 33.4444 56.0986Z" fill="#EA0029"/>
<path d="M4.22538 28.3835C4.1299 28.3119 3.98667 28.2642 3.86731 28.2642C3.74795 28.2642 3.60472 28.2642 3.48536 28.3358C3.366 28.3835 3.27051 28.479 3.22277 28.5984C3.17502 28.7177 3.12728 28.8371 3.10341 28.9803L3.05566 29.9352L4.48797 30.0307L4.53572 29.0758C4.53572 28.9326 4.53572 28.8132 4.4641 28.6939C4.41636 28.5506 4.34474 28.479 4.22538 28.3835Z" fill="#EA0029"/>
<path d="M37.0497 55.0725C37.0497 55.1202 37.0258 55.168 37.0258 55.2157L36.3097 57.1016C36.2858 57.1493 36.2619 57.1971 36.2381 57.2448C36.2142 57.2926 36.1664 57.3164 36.1426 57.3403L37.5988 56.9822L37.0975 54.9531C37.0497 54.977 37.0497 55.0247 37.0497 55.0725Z" fill="#EA0029"/>
<path d="M35.8071 6.68383C36.0697 6.58834 36.3084 6.42124 36.4994 6.18252C36.6904 5.9438 36.8097 5.68121 36.8575 5.37088C36.9052 5.06054 36.8813 4.77408 36.7858 4.48762C36.6904 4.20116 36.5233 3.98631 36.3084 3.77146C36.0697 3.58049 35.831 3.46113 35.5206 3.41339L34.4225 3.22241L33.8496 6.56447L34.9477 6.75545C35.2342 6.80319 35.5206 6.77932 35.8071 6.68383Z" fill="#EA0029"/>
<path d="M52.757 14.8004C52.8047 14.681 52.8763 14.6094 52.9241 14.5616C52.9718 14.5139 53.0196 14.4661 53.0912 14.4184L53.0673 14.3945C52.9957 14.4423 52.9479 14.4661 52.8763 14.5139C52.8047 14.5378 52.7092 14.5616 52.5899 14.6094L50.8711 15.0152L51.8737 16.3759L52.757 14.8004Z" fill="#EA0029"/>
<path d="M8.88021 15.0394C8.76086 15.0155 8.66537 14.9917 8.59375 14.9678C8.52214 14.9439 8.47439 14.9201 8.40278 14.8723L8.37891 14.8962C8.42665 14.9439 8.49826 14.9917 8.54601 15.0394C8.59375 15.0872 8.6415 15.1826 8.71311 15.2781L9.62024 16.7821L10.599 15.3975L8.88021 15.0394Z" fill="#EA0029"/>
<path d="M56.6006 24.4208C56.6961 24.5163 56.7916 24.5879 56.9109 24.6118C57.0303 24.6356 57.1496 24.6356 57.2929 24.6118C57.4361 24.5879 57.5316 24.5163 57.6271 24.4208C57.7226 24.3253 57.7703 24.2059 57.7942 24.0866C57.8181 23.9672 57.8181 23.824 57.7942 23.6808L57.5555 22.7498L56.1709 23.1317L56.4096 24.0627C56.4574 24.2059 56.529 24.3253 56.6006 24.4208Z" fill="#EA0029"/>
<path d="M30.8906 9.93066C19.3366 9.93066 9.90723 19.3362 9.90723 30.914C9.90723 42.4919 19.3127 51.8974 30.8906 51.8974C42.4684 51.8974 51.8739 42.4919 51.8739 30.914C51.8739 19.3362 42.4446 9.93066 30.8906 9.93066ZM34.6146 19.0975C36.1424 18.9781 36.4527 17.4264 35.5933 16.7341C34.9727 16.2328 34.8533 15.4928 35.4262 15.2541C36.8824 14.6573 37.3837 13.3443 37.4315 12.0553C37.7418 12.1985 38.0283 12.294 37.9566 12.7714C37.9089 13.1534 37.5508 14.3708 36.8585 15.0154C36.9302 15.1109 37.0018 15.1109 37.0973 15.2541C38.2192 14.5141 38.6012 13.6785 38.816 12.9863C39.0309 13.1772 39.2935 13.4398 39.1502 13.7502C39.007 14.0605 38.3625 15.1825 37.4792 15.6838C37.5508 15.8031 37.5986 15.8509 37.6702 15.9702C38.5296 15.6838 39.6515 14.6334 39.8664 14.1321C39.9619 14.3231 40.2483 14.6095 40.0096 14.9199C39.6277 15.4212 38.8399 16.0896 37.9328 16.4715C37.9566 16.5432 38.0283 16.7341 38.0521 16.8296C39.3173 16.4954 40.1529 15.9464 40.6303 15.5405C40.7735 15.8986 40.8213 16.0896 40.5826 16.3044C40.3438 16.4954 39.0548 17.2832 38.1715 17.4026C38.1954 17.5219 38.1715 17.6651 38.1954 17.7606C39.2935 17.7845 40.5348 17.2354 40.9884 16.949C41.0361 17.0683 41.0839 17.5697 40.8451 17.689C40.6064 17.8084 39.4128 18.3813 38.1476 18.3336C38.1476 18.3574 38.076 18.6439 38.076 18.7155C39.0786 18.9542 40.6064 18.6439 41.0122 18.4768C40.9884 18.7871 41.0122 19.0736 40.5826 19.1929C40.129 19.3123 38.7922 19.5033 37.8612 19.2407C37.8373 19.3123 37.7418 19.4794 37.6702 19.551C38.1476 19.7659 39.2935 20.1478 40.6064 19.933C40.5109 20.1717 40.4154 20.5298 40.0574 20.5536C39.2219 20.6253 37.9089 20.3388 37.3599 20.0046C37.2882 20.0762 37.1927 20.1956 37.1211 20.2433C37.4792 20.5298 38.5057 21.222 39.9141 21.2937C39.8187 21.5085 39.5561 21.8666 39.1502 21.795C38.2909 21.604 37.3599 21.222 36.6437 20.6014C36.4766 20.6969 36.405 20.7446 36.3334 20.7924C36.4766 20.9833 37.3837 22.0814 38.8399 22.535C38.458 22.7976 38.1715 22.8931 37.7895 22.7021C37.2166 22.4156 36.3572 21.795 35.7843 21.0072C35.5933 21.0549 35.5456 21.0788 35.4501 21.1027C35.6172 21.4608 36.1901 22.4634 37.0734 23.1318C36.5005 23.275 36.2617 23.1557 36.0469 22.9408C35.5217 22.3918 34.9488 21.4608 34.8533 21.1504C34.6623 21.1504 34.5907 21.1504 34.4236 21.1504C34.5668 21.9859 35.0204 22.8453 35.3785 23.3466C35.0443 23.4183 34.7339 23.4183 34.6623 23.3466C34.3281 22.8692 33.9223 21.9382 33.8268 21.1504C33.612 21.1504 33.4926 21.1982 33.4449 21.222C33.421 22.2724 33.7552 23.3944 34.0417 23.9196C33.8507 24.0628 33.7552 24.206 33.6358 24.3731C33.3255 23.8957 32.8958 22.6782 32.8958 21.4846C31.559 22.7498 33.4926 26.45 34.8294 27.6436C34.4952 27.7629 34.3281 27.8584 34.0894 27.9062C33.8507 27.7868 33.0868 26.5932 33.0152 26.4977C32.8242 26.5455 32.7765 26.5455 32.6332 26.5932C32.7048 26.7842 33.2778 27.9539 33.4449 28.0971C33.3255 28.1449 32.8958 28.2404 32.7048 28.2642C31.368 24.2538 28.3602 21.2937 30.7235 18.4768C30.7473 18.4529 30.7712 18.429 30.7951 18.4052H30.7712C30.5086 18.3336 29.9118 18.1665 29.7686 18.1187C29.9357 18.0471 30.6041 16.7103 30.5086 16.2328C30.4848 16.0896 30.0073 15.3018 29.5776 15.5644C29.5538 15.5644 29.697 14.896 30.0789 14.8721C30.3177 14.8483 30.5325 15.0631 30.6757 15.087C30.819 15.087 30.7712 15.0392 30.7712 14.9438C30.7951 14.9199 30.819 14.9438 30.8428 14.9438C32.8481 15.4928 32.5377 17.1877 32.7287 17.7606C32.0842 17.7606 31.8216 17.9993 31.7022 18.2142C31.7022 18.2858 31.7022 18.3336 31.7022 18.3336C33.039 18.0232 33.3255 19.1929 34.6146 19.0975ZM35.2114 30.174C35.0682 30.174 34.7101 30.174 34.5907 30.174C34.5907 30.1262 34.2326 29.2907 34.2088 29.243C34.3759 29.2191 34.8772 29.2907 34.9488 29.4101C35.0204 29.5533 35.1875 30.0546 35.2114 30.174ZM34.0894 30.1979C34.0178 30.1979 33.612 30.1979 33.4926 30.1979C33.4687 30.1262 33.2062 29.4101 33.0152 29.0998C33.1107 29.0998 33.6597 29.052 33.7552 29.2907C33.8268 29.4578 34.0655 30.0069 34.0894 30.1979ZM31.8932 28.4075C32.1558 28.3836 32.5139 28.312 32.6094 28.312C32.681 28.4791 32.8242 29.1475 32.8242 29.243C32.6094 29.434 32.2274 30.174 32.1797 30.174C32.2274 29.6966 31.9648 28.5746 31.8932 28.4075ZM30.5325 26.7842C30.5086 26.9274 30.4131 28.3359 30.3654 28.4313C30.246 28.4313 29.888 28.4075 29.7209 28.3836C29.9118 27.5958 30.5802 25.4235 30.5802 25.4235C30.5802 25.4235 31.5829 27.381 31.8693 28.4075C31.7261 28.4075 31.2725 28.4552 31.2009 28.4552C31.2009 28.3836 30.9383 26.8797 30.9622 26.7842C30.7951 26.8081 30.628 26.7842 30.5325 26.7842ZM28.0021 28.8849C28.0976 28.8133 28.5989 28.861 28.6944 28.9088C28.5273 29.1475 28.0976 29.792 28.0737 29.9591C27.8827 29.8398 27.6679 29.6727 27.5963 29.6011C27.644 29.5056 27.9305 28.9804 28.0021 28.8849ZM27.1904 29.3623C27.095 29.3146 26.7607 29.1236 26.713 29.0759C26.7607 29.0043 26.8324 28.8849 26.9279 28.7894C26.9756 28.7417 27.4053 28.7417 27.644 28.8372C27.5008 28.9088 27.2859 29.243 27.1904 29.3623ZM28.4318 28.121C28.5034 28.0733 29.0286 26.7603 29.1002 26.5932C28.9331 26.5693 28.8615 26.5216 28.766 26.4977C28.6944 26.5932 27.9782 27.7391 27.7395 27.93C27.5485 27.8584 27.2859 27.7868 27.0472 27.6674C27.2143 27.6197 29.3867 24.779 29.2912 22.535C29.3867 22.8453 30.1506 24.588 30.1506 24.588C30.1506 24.588 29.0763 27.9539 29.0286 28.2642C28.7899 28.2165 28.575 28.1688 28.4318 28.121ZM28.9808 28.2881H29.0047C29.0763 28.2881 29.4583 28.3359 29.697 28.3836C29.6254 28.6701 29.4105 29.5294 29.3389 30.1979C29.3389 30.1979 29.3389 30.1501 29.315 30.1024C29.315 30.1262 29.315 30.1501 29.315 30.1979C29.2912 30.1024 28.8615 29.1475 28.7899 29.0759C28.8137 28.9804 28.957 28.3359 28.9808 28.2881ZM29.9357 13.416C29.7209 13.5353 29.506 13.6308 29.2673 13.7024C29.1957 13.225 28.8137 12.9146 28.7182 12.6043C28.766 12.6043 28.8137 12.5804 28.8615 12.5804C29.1479 12.9624 29.7209 13.0101 29.9357 13.416ZM29.4344 12.3178C29.4583 12.294 29.5299 12.2462 29.5538 12.2224C29.9835 12.4611 30.5564 12.3656 30.8667 12.5566C30.7235 12.7475 30.5802 12.9146 30.3893 13.0817C30.1028 12.6282 29.7209 12.5566 29.4344 12.3178ZM31.9171 13.2727L31.6306 13.3682C31.6306 13.3682 31.7738 13.7979 31.8216 14.0844C31.4158 14.347 32.0842 14.6812 32.0603 14.1799C32.1319 14.156 32.5855 13.9889 32.5855 13.9889V13.7502L32.8242 13.7024V13.9411L32.5855 13.9889C32.5855 13.9889 32.5855 14.4186 32.5855 14.5857C32.1319 14.7766 32.7048 15.2063 32.7765 14.7289C32.8481 14.7289 33.4687 14.705 33.4687 14.705L33.4449 14.3947C33.4449 14.3947 33.7313 14.3947 33.7552 14.3947C33.7552 14.3947 32.8719 15.4212 32.6571 15.6599C32.1797 14.8244 31.177 14.5141 31.1293 14.4902C31.177 14.3708 31.7977 12.9863 31.7977 12.9863L31.9171 13.2727ZM30.2222 10.8855C30.437 10.8855 30.628 10.8855 30.819 10.8855C31.0338 10.8855 31.2248 10.8855 31.4158 10.8855C31.4158 10.8855 31.4158 10.8855 31.4158 10.9094C30.9622 10.9333 30.4131 11.1243 30.1983 11.1243C30.1983 11.0288 30.2222 10.9333 30.2222 10.8855ZM30.0073 11.6972C30.437 11.6972 30.8667 11.4823 31.3441 11.4823C31.2964 11.6972 31.2248 11.912 31.1293 12.103C30.628 11.8165 30.1744 11.912 29.9118 11.8404C29.9596 11.7688 29.9834 11.7211 30.0073 11.6972ZM29.6492 10.9094C29.6254 11.554 29.1002 12.0791 28.4557 12.0791C27.9066 12.0791 27.453 11.6972 27.3098 11.1959C28.0737 11.0288 28.8615 10.9333 29.6492 10.9094ZM27.9782 12.5566C28.0498 12.5804 28.0976 12.5804 28.1692 12.6043C28.2885 13.2011 28.6944 13.4398 28.7421 13.8218C28.6466 13.8218 28.5511 13.8218 28.4795 13.8218C28.3124 13.8218 28.1453 13.8218 28.0021 13.774C28.1214 13.3205 27.9782 12.9146 27.9782 12.5566ZM27.4053 12.2701C27.3098 12.7714 27.5724 13.2727 27.4292 13.6308C27.1904 13.5353 26.9756 13.416 26.7607 13.2966C27.095 12.9624 27.1188 12.4611 27.2859 12.1746C27.3098 12.2224 27.3575 12.2462 27.4053 12.2701ZM26.9279 11.7211C26.522 12.2224 26.6414 12.6759 26.3549 12.9146C26.1878 12.7475 26.0446 12.5327 25.9014 12.3417C26.3549 12.1746 26.5459 11.7927 26.8801 11.6256C26.8801 11.6494 26.904 11.6972 26.9279 11.7211ZM26.2117 11.4107C26.0923 11.5301 25.8775 11.7688 25.6626 11.8165C25.6388 11.7449 25.6149 11.6494 25.591 11.554C25.782 11.5062 25.9969 11.4585 26.2117 11.4107ZM20.6973 16.949C21.1509 17.2354 22.3922 17.7845 23.4903 17.7606C23.4903 17.6651 23.4903 17.5219 23.5142 17.4026C22.6309 17.2832 21.318 16.4954 21.1031 16.3044C20.8644 16.1135 20.8883 15.8986 21.0554 15.5405C21.5328 15.9464 22.3445 16.4954 23.6335 16.8296C23.6574 16.7341 23.729 16.5432 23.7529 16.4715C22.8458 16.0896 22.058 15.4451 21.676 14.9199C21.4373 14.5857 21.6999 14.2992 21.8193 14.1321C22.0103 14.6095 23.1561 15.6599 24.0155 15.9702C24.0871 15.8509 24.1348 15.8031 24.2065 15.6838C23.3232 15.1825 22.6787 14.0605 22.5354 13.7502C22.3922 13.4398 22.6548 13.1772 22.8696 12.9863C23.0845 13.6785 23.4664 14.5141 24.5884 15.2541C24.7078 15.1109 24.7794 15.1347 24.8271 15.0154C24.111 14.3708 23.7768 13.1534 23.729 12.7714C23.6574 12.3178 23.9439 12.2224 24.2542 12.0553C24.3019 13.3443 24.8033 14.6334 26.2594 15.2541C26.8324 15.4928 26.7369 16.2328 26.0923 16.7341C25.2091 17.4264 25.5194 18.9781 27.0711 19.0975C27.8589 19.1691 28.4318 18.4529 29.6492 18.1426C29.506 18.2858 29.4105 18.4529 29.1718 18.7155C29.2673 18.7394 29.4105 18.811 29.5776 18.811C28.8376 20.0762 29.1002 21.4608 29.1718 21.7711C29.0763 21.5324 28.957 21.4846 28.8853 21.4846C28.8853 22.6782 28.4318 23.8957 28.1453 24.3731C28.026 24.206 27.9305 24.0628 27.7395 23.9196C28.026 23.3944 28.3602 22.2724 28.3363 21.222C28.2885 21.222 28.1453 21.1743 27.9543 21.1504C27.8589 21.9382 27.453 22.8692 27.1188 23.3466C27.0711 23.4183 26.7607 23.4183 26.4027 23.3466C26.7607 22.8453 27.2143 21.9859 27.3575 21.1504C27.2143 21.1504 27.1188 21.1504 26.9279 21.1504C26.8324 21.4608 26.2594 22.3918 25.7343 22.9408C25.5194 23.1557 25.2568 23.2512 24.7078 23.1318C25.5672 22.4395 26.164 21.4369 26.3311 21.1027C26.2356 21.0788 26.164 21.0788 25.9969 21.0072C25.4001 21.795 24.5645 22.4156 23.9916 22.7021C23.6097 22.8931 23.3232 22.7976 22.9413 22.535C24.3974 22.0576 25.3046 20.9595 25.4478 20.7924C25.3523 20.7446 25.2807 20.6969 25.1375 20.6014C24.4213 21.222 23.4903 21.604 22.6309 21.795C22.2251 21.8905 21.9625 21.5085 21.867 21.2937C23.2993 21.222 24.302 20.5298 24.66 20.2433C24.5884 20.1956 24.4929 20.0762 24.4213 20.0046C23.8484 20.3388 22.5593 20.6014 21.7238 20.5536C21.3418 20.5298 21.2464 20.1478 21.1747 19.933C22.4638 20.1478 23.6335 19.7659 24.111 19.551C24.0632 19.4555 23.9677 19.3123 23.92 19.2407C22.9651 19.4794 21.6283 19.3123 21.1986 19.1929C20.7689 19.0736 20.7928 18.811 20.7689 18.4768C21.1986 18.6439 22.7264 18.9542 23.7052 18.7155C23.7052 18.6678 23.6335 18.3813 23.6335 18.3336C22.3683 18.3574 21.1747 17.8084 20.936 17.689C20.6018 17.5697 20.6257 17.0683 20.6973 16.949ZM19.814 23.1079C20.4825 23.0363 22.5116 23.1318 22.3206 24.9938C21.5089 25.328 21.2464 25.4712 21.2464 25.4712C21.7238 23.8718 20.5063 23.3944 19.7424 23.2989C19.456 23.2512 19.4798 23.1318 19.814 23.1079ZM20.8644 26.45C21.4135 26.068 23.2993 25.328 24.0155 25.137C24.3974 25.0415 24.9226 24.7551 25.2807 24.6596C25.5194 24.588 25.7581 24.6596 25.8775 24.8028C25.9014 24.8506 25.8775 24.9938 25.9252 25.0415C25.973 25.0893 26.6891 25.5906 26.6653 25.7816C26.5936 26.2351 26.4743 26.259 26.3788 26.4261C26.164 26.8558 25.973 27.3332 25.5672 28.0494C24.5407 31.0572 22.7503 29.3862 22.3206 28.8372C22.058 29.2669 21.5089 31.0572 21.1509 31.6779C22.3206 31.3198 22.4638 30.4605 22.4638 29.983C22.607 30.1262 23.4426 30.6276 24.2303 30.4605C23.729 31.1527 21.1747 33.0625 22.6548 35.9748C22.6787 35.1155 22.607 34.4232 23.0129 33.158C23.4664 31.7734 25.3284 30.914 25.7343 29.3623C25.7343 29.3623 25.8297 29.3862 26.0446 29.4578C26.7607 29.6966 27.7634 30.7708 28.0737 30.7947C28.4795 30.8424 37.0018 30.8185 37.6463 30.8185C38.4102 30.8185 39.7709 30.0546 41.2271 30.6514C45.5479 32.4179 44.9272 38.2665 41.3942 39.4124C41.609 39.0304 41.8 38.6724 41.8955 38.3859C41.1793 38.8395 41.0122 38.7679 40.4393 38.9827C40.2961 39.0304 40.1051 39.2692 40.1767 39.675C40.2483 40.1524 40.3916 40.6537 40.129 41.0118C39.9141 41.2744 35.8082 40.9163 35.4501 41.1312C34.9488 41.4415 34.8056 41.7041 34.0178 41.7041C34.0655 41.5609 34.1133 41.2267 33.7552 41.2505C33.1107 41.2983 33.5165 42.2293 32.9913 42.4202C32.8719 42.468 32.7765 42.4202 32.7048 42.4441C32.4423 42.5396 32.4184 42.8738 32.3945 43.0648C32.2274 43.0648 30.0551 43.0887 29.8163 43.0648C30.0551 42.3248 30.5564 41.8951 30.6996 41.8473C30.6041 41.8235 30.5325 41.8473 30.5086 41.6563C31.2248 41.5609 31.2248 41.1789 31.6545 40.8925C31.8932 40.7253 32.2274 40.5582 32.6094 40.3195C32.9436 40.1047 33.5165 39.7943 33.8268 39.6034C30.2699 39.1498 30.5564 36.6194 31.2248 35.1393C32.5377 34.9245 32.6094 33.4444 32.5139 33.1102C32.4184 32.7521 32.3706 32.1792 32.3706 31.4869C31.8216 33.0386 31.2964 32.9909 30.4609 34.9484C29.506 37.1923 30.3654 38.9111 31.4874 39.6034H29.5538C29.6492 37.9801 29.1957 37.6459 28.9808 37.2878C28.7421 36.9058 29.0047 34.4709 28.6228 33.898C28.4795 33.6831 27.7156 33.3251 27.4292 33.3251C28.575 34.3038 27.9066 36.4523 28.3363 37.5026C28.5273 37.9562 28.957 38.0756 28.8853 39.5556C28.4079 39.6034 23.4664 39.6034 23.2038 39.6034C23.6335 39.2453 22.9413 38.6007 22.4399 39.6034C22.3445 39.8182 22.2728 39.866 21.9864 40.0808C21.7238 40.0569 19.7902 40.1047 19.5515 40.0808C19.5992 39.7943 20.2676 39.1498 20.5779 38.9588C20.5063 38.8872 20.3154 38.9827 20.3631 38.744C20.4586 38.744 20.6496 38.7201 20.9121 38.553C21.1747 38.4098 21.1747 38.0517 22.0103 37.9323C21.0554 37.5504 20.4347 36.0942 20.2915 35.1632C19.8618 34.5187 18.8353 32.8476 18.9069 31.3198C20.8644 31.3437 21.3657 29.1952 21.6044 28.5984C21.8432 28.0494 20.9838 27.3571 20.6018 28.3597C20.3392 29.0998 19.8618 30.3172 19.0024 30.4366C19.1218 30.1501 20.6496 27.2616 20.8644 26.45ZM45.1898 42.2531C44.8556 42.1815 44.593 42.1577 44.3304 42.2054C44.1156 41.8951 42.9459 39.9376 42.7549 39.6272C42.9459 39.5318 43.3039 39.2214 43.3039 39.2214C43.5188 39.5079 44.9988 41.9667 45.1898 42.2531ZM29.5776 39.7227C29.5776 39.7227 29.3389 42.8022 29.3389 43.017C29.1241 42.8261 28.9092 42.7306 28.6705 42.659C28.6944 42.3964 28.9092 39.7227 28.9092 39.7227H29.5776ZM23.7529 42.3964C23.2755 42.5873 22.5354 42.5157 22.3683 42.3964C22.5593 42.2293 22.9413 41.8712 22.8935 41.728C22.6309 41.7041 22.0103 41.9189 21.867 41.9667C21.7238 41.6563 21.867 41.2505 22.2012 40.9879C22.4877 41.1312 22.8696 41.2744 23.0606 41.2267C23.1561 40.9879 23.0367 40.6776 23.0129 40.5582C23.1561 40.4866 24.0394 40.3911 24.302 40.5821C24.1826 40.7015 23.8006 41.0357 23.7768 41.2505C23.9916 41.2505 24.5168 41.1312 24.7794 41.0118C24.9704 41.2983 24.7794 41.728 24.4691 41.9905C24.2303 41.8473 23.8006 41.7518 23.5858 41.7518C23.5619 41.9667 23.6574 42.2054 23.7529 42.3964ZM16.7346 30.0785C16.7584 30.0546 16.8301 30.0308 16.8778 30.0308C17.2836 30.1979 18.2385 30.5559 19.0501 30.5798C18.9547 30.8663 18.9069 31.2721 18.9308 31.4631C17.9282 31.3198 16.472 30.3172 16.7346 30.0785ZM14.1564 38.8872C14.3474 38.1472 15.2068 37.7652 15.1113 37.7175C15.0158 37.7175 14.8964 37.7414 14.8964 37.5981C15.159 37.5981 15.4694 37.2162 15.7081 37.073C15.9945 36.882 16.663 36.7865 17.0449 36.6671C17.4507 36.5478 18.8114 35.7123 19.6469 35.6168C19.6231 35.9987 20.2437 37.431 20.6018 37.7891C20.005 38.0278 18.0475 38.0278 17.8566 38.0517C18.1191 37.7414 17.5462 37.2639 17.1404 38.0517C17.021 38.2904 17.021 38.5291 16.663 38.8872C16.3526 38.9111 14.7055 38.8872 14.1564 38.8872ZM36.7392 48.794C35.8321 48.794 25.233 48.794 25.233 48.794V46.7411H24.5168L24.8033 45.4042C21.3896 45.4042 16.7584 45.4042 16.7584 45.4042V43.3512H15.9468L18.7398 38.7679C19.074 38.744 19.1695 38.744 19.5992 38.7201C19.265 39.2453 16.7346 43.3751 16.7823 43.3512C16.7823 43.3512 27.1904 43.3512 28.2169 43.3512C29.5538 43.3512 29.506 45.4042 28.2885 45.4042C28.026 45.4042 26.9279 45.4042 25.5194 45.4042L25.233 46.7411C25.233 46.7411 35.6411 46.7411 36.6676 46.7411C38.0044 46.7172 37.9566 48.794 36.7392 48.794ZM45.0466 44.9029C44.4975 44.9029 40.2006 44.9029 37.0018 44.9029C37.0256 45.0461 37.2405 45.9294 37.2882 46.1681C37.0495 46.0726 36.7153 46.0249 36.5482 46.0249C36.5005 45.7862 36.3095 45.0223 36.2856 44.9029C34.6862 44.9029 33.5165 44.9029 33.5165 44.9029V42.8499C33.5165 42.8499 43.9246 42.8499 44.9511 42.8499C46.3118 42.8499 46.264 44.9029 45.0466 44.9029Z" fill="#EA0029"/>
<path d="M28.3587 55.8358L27.0219 57.3398C26.998 57.3636 26.9503 57.4114 26.9026 57.4352C26.8548 57.4591 26.8071 57.483 26.7832 57.483L28.2633 57.6501L28.502 55.5732C28.502 55.621 28.4781 55.6449 28.4542 55.6926C28.4304 55.7642 28.3826 55.812 28.3587 55.8358Z" fill="#EA0029"/>
<path d="M30.8902 0C13.8218 0 0 13.8457 0 30.914C0 47.9824 13.8218 61.8281 30.8902 61.8281C47.9585 61.8281 61.7803 47.9824 61.7803 30.914C61.7803 13.8457 47.9585 0 30.8902 0ZM59.2738 27.4765L54.5233 28.121L54.4278 27.381L59.1783 26.7365L59.2738 27.4765ZM58.5099 23.5376C58.5815 23.8002 58.5815 24.0628 58.5099 24.3015C58.4621 24.5403 58.3189 24.779 58.1518 24.9699C57.9608 25.1609 57.746 25.2803 57.4834 25.3519C57.2447 25.4235 57.0298 25.4235 56.7911 25.3519C56.5763 25.3042 56.3853 25.1848 56.2182 25.0654C56.0511 24.9222 55.9556 24.779 55.9079 24.6119L55.884 24.5164C55.884 24.6119 55.884 24.7074 55.884 24.7551C55.884 24.8267 55.8362 24.8983 55.7885 24.9461L54.3801 26.7365L54.213 26.1635C54.1891 26.0681 54.1891 25.9726 54.1891 25.901C54.1891 25.8055 54.2368 25.7338 54.3084 25.6384L55.5737 24.0151L55.3827 23.3467L53.5684 23.848L53.3536 23.1079L57.9847 21.8427L58.5099 23.5376ZM56.0272 17.2593L53.4013 18.5484C53.1865 18.6439 53.0194 18.7871 52.9239 18.9542C52.8045 19.1213 52.7329 19.3123 52.7329 19.5033C52.7329 19.7181 52.7568 19.9091 52.8761 20.124C52.9716 20.3388 53.1149 20.5059 53.282 20.6253C53.4491 20.7446 53.64 20.8162 53.831 20.8162C54.0459 20.8162 54.2368 20.7924 54.4517 20.673L57.0776 19.3839L57.4118 20.0762L54.7859 21.3653C54.4517 21.5324 54.0936 21.604 53.7833 21.604C53.4491 21.604 53.1387 21.4847 52.8523 21.2937C52.5897 21.1027 52.351 20.8162 52.1838 20.482C52.0167 20.1478 51.9451 19.7898 51.9451 19.4556C51.9451 19.1213 52.0645 18.811 52.2555 18.5484C52.4464 18.2858 52.709 18.0471 53.0432 17.88L55.6691 16.5909L56.0272 17.2593ZM53.6162 13.5592L54.022 14.0844L51.42 18.6439L51.1096 18.2381C51.0619 18.1665 51.0141 18.071 51.0141 17.9755C51.0141 17.88 51.0141 17.7845 51.0857 17.7129L51.4916 16.9968L50.107 15.1586L49.2954 15.3496C49.1999 15.3735 49.1044 15.3735 49.0328 15.3496C48.9373 15.3257 48.8657 15.2541 48.8179 15.1825L48.5076 14.7767L53.6162 13.5592ZM49.2237 9.85907L49.7489 9.33389L52.351 11.9359L51.8258 12.4611L50.7993 11.4346L47.9347 14.3231L47.4095 13.7979L50.2741 10.9094L49.2237 9.85907ZM42.468 4.77437L40.5821 9.19066L39.8899 8.9042L41.7757 4.48791L42.468 4.77437ZM39.484 3.65239L40.2002 3.89111L38.6963 8.45063L37.9801 8.21192L39.484 3.65239ZM33.8025 2.41106L35.6407 2.72139C36.0704 2.79301 36.4523 2.96011 36.7865 3.24657C37.1207 3.50916 37.3594 3.84337 37.5027 4.24919C37.6459 4.65501 37.6936 5.06083 37.622 5.49052C37.5504 5.92022 37.3833 6.30217 37.0968 6.63637C36.8343 6.97058 36.4762 7.18543 36.0942 7.35253C35.6884 7.49576 35.2826 7.5435 34.8529 7.47189L33.0148 7.16155L33.8025 2.41106ZM28.7178 2.38718L28.8133 5.32342C28.8133 5.56214 28.8849 5.75311 28.9804 5.94409C29.0759 6.11119 29.2191 6.25442 29.4101 6.34991C29.6011 6.4454 29.7921 6.49314 30.0308 6.46927C30.2695 6.46927 30.4843 6.39765 30.6514 6.30217C30.8186 6.20668 30.9618 6.06345 31.0573 5.87247C31.1528 5.6815 31.2005 5.49052 31.1766 5.25181L31.0811 2.31557L31.845 2.2917L31.9405 5.22793C31.9405 5.60988 31.8928 5.94409 31.7257 6.23055C31.5586 6.51701 31.3437 6.75573 31.0573 6.94671C30.7708 7.11381 30.4366 7.2093 30.0547 7.2093C29.6727 7.2093 29.3146 7.16155 29.0282 6.99445C28.7417 6.82735 28.503 6.6125 28.312 6.32604C28.1449 6.03958 28.0494 5.70537 28.0494 5.32342L27.9778 2.38718H28.7178ZM26.6649 2.57816L26.832 3.31819L25.3996 3.62852L26.259 7.59125L25.519 7.75835L24.6596 3.79562L23.2273 4.10596L23.0602 3.36593L26.6649 2.57816ZM19.6704 5.20406C19.7181 4.96534 19.8136 4.77437 19.9807 4.58339C20.1478 4.39242 20.3627 4.27306 20.6253 4.1537C20.8401 4.08209 21.0788 4.03434 21.3176 4.03434C21.5563 4.03434 21.795 4.08209 21.986 4.17757L21.9382 4.44016C21.9382 4.51178 21.8905 4.58339 21.8666 4.65501C21.8189 4.70275 21.7711 4.7505 21.6995 4.77437C21.6518 4.79824 21.5801 4.79824 21.5324 4.79824C21.413 4.77437 21.2937 4.77437 21.1743 4.77437C21.055 4.77437 20.9595 4.79824 20.8879 4.84598C20.6969 4.9176 20.5537 5.03696 20.4582 5.15632C20.3866 5.29955 20.3627 5.44278 20.4343 5.60988C20.482 5.72924 20.5775 5.82473 20.7446 5.87247C20.9117 5.92022 21.1266 5.94409 21.4369 5.92022C21.9382 5.89635 22.344 5.94409 22.6544 6.11119C22.9647 6.25442 23.1796 6.49314 23.2989 6.82735C23.3944 7.08994 23.4183 7.35253 23.3705 7.61512C23.3228 7.87771 23.2034 8.09256 23.0125 8.3074C22.8215 8.52225 22.5828 8.66548 22.2724 8.78484C22.0098 8.88033 21.6995 8.92807 21.413 8.9042C21.1266 8.88033 20.8401 8.80871 20.5775 8.66548L20.6253 8.35515C20.6253 8.3074 20.6491 8.25966 20.6969 8.21192C20.7208 8.16417 20.7924 8.1403 20.8401 8.11643C20.9117 8.09256 21.0072 8.09256 21.0788 8.11643C21.2459 8.1403 21.413 8.16417 21.5801 8.18804C21.7711 8.18804 21.8905 8.18804 22.0098 8.1403C22.2486 8.04481 22.4395 7.90158 22.535 7.73448C22.6305 7.56738 22.6544 7.3764 22.5589 7.16155C22.5112 7.01832 22.3918 6.92284 22.2247 6.85122C22.0576 6.7796 21.795 6.75573 21.4847 6.75573C21.0072 6.75573 20.6014 6.70799 20.3149 6.56476C20.0285 6.4454 19.8375 6.23055 19.7181 5.94409C19.6465 5.65763 19.6227 5.44278 19.6704 5.20406ZM10.4081 11.1243C10.4797 10.8856 10.6468 10.6707 10.8378 10.4797C11.0049 10.3126 11.1959 10.1933 11.4346 10.0978C11.6733 10.0023 11.8882 9.95456 12.1269 9.95456L12.1985 10.2171C12.2224 10.2888 12.2224 10.3843 12.1985 10.4559C12.1746 10.5275 12.1508 10.5991 12.103 10.6468C12.0553 10.6946 12.0075 10.7185 11.9598 10.7423C11.8404 10.7662 11.7211 10.7901 11.6256 10.8617C11.5301 10.9094 11.4346 10.981 11.3869 11.0527C11.2436 11.1959 11.1482 11.3391 11.1482 11.5062C11.1243 11.6733 11.172 11.8166 11.2914 11.9359C11.3869 12.0314 11.5301 12.0792 11.6733 12.0553C11.8404 12.0553 12.0553 11.9598 12.3179 11.8404C12.7714 11.6017 13.1534 11.5062 13.5115 11.5301C13.8695 11.554 14.156 11.6733 14.3947 11.9359C14.6096 12.1508 14.7289 12.3656 14.7767 12.6282C14.8244 12.8908 14.8005 13.1295 14.7289 13.416C14.6334 13.6786 14.4902 13.9173 14.2515 14.156C14.0366 14.3709 13.7979 14.5141 13.5115 14.6096C13.225 14.7051 12.9385 14.7528 12.6521 14.7289L12.5805 14.4186C12.5805 14.3709 12.5805 14.2992 12.5805 14.2515C12.6043 14.2037 12.6282 14.156 12.676 14.1083C12.7237 14.0605 12.8192 14.0128 12.8908 13.9889C13.0579 13.965 13.225 13.9173 13.3682 13.8457C13.5353 13.7741 13.6547 13.7024 13.7502 13.607C13.9412 13.416 14.0366 13.225 14.0605 13.034C14.0844 12.8192 14.0128 12.6521 13.8457 12.485C13.7263 12.3656 13.5831 12.3179 13.3921 12.3179C13.2011 12.3179 12.9624 12.3895 12.6521 12.5327C12.1985 12.7476 11.8166 12.8431 11.5062 12.8192C11.1959 12.8192 10.9333 12.6998 10.7185 12.485C10.5275 12.294 10.432 12.103 10.3843 11.8643C10.3126 11.5778 10.3365 11.3391 10.4081 11.1243ZM7.82997 14.0366L12.9624 15.1109L12.676 15.5406C12.6282 15.6122 12.5566 15.6838 12.4611 15.7077C12.3656 15.7315 12.2701 15.7554 12.1985 15.7315L11.3869 15.5644L10.0262 17.4264L10.4559 18.1426C10.5036 18.2142 10.5275 18.3097 10.5275 18.4052C10.5275 18.5007 10.5036 18.5962 10.432 18.6678L10.1455 19.0975L7.44802 14.6096L7.82997 14.0366ZM6.25442 16.2806L6.92284 16.6148L6.25442 17.9039L9.88294 19.742L9.54874 20.4104L5.92022 18.5723L5.25181 19.8852L4.58339 19.551L6.25442 16.2806ZM4.17757 20.7446L8.68935 22.3918L8.42676 23.1079L3.91498 21.4608L4.17757 20.7446ZM3.03172 24.3015C3.07947 24.0628 3.17496 23.8718 3.31819 23.657C3.46142 23.4422 3.62852 23.2989 3.8195 23.1796L4.01047 23.3705C4.05821 23.4183 4.10596 23.4899 4.12983 23.5615C4.1537 23.6331 4.1537 23.7047 4.12983 23.7764C4.12983 23.8241 4.10596 23.8718 4.05821 23.9435C3.96273 24.0151 3.89111 24.1106 3.84337 24.2061C3.79562 24.3015 3.74788 24.397 3.72401 24.4925C3.67626 24.7074 3.70014 24.8745 3.74788 25.0177C3.8195 25.1609 3.93885 25.2564 4.10596 25.3042C4.22532 25.328 4.36855 25.3042 4.48791 25.2087C4.60727 25.1132 4.7505 24.9461 4.9176 24.6835C5.18019 24.2538 5.44278 23.9435 5.75312 23.7764C6.03958 23.6093 6.37378 23.5615 6.70799 23.6331C6.97058 23.7047 7.2093 23.8241 7.40027 24.0151C7.59125 24.2061 7.71061 24.4448 7.78222 24.7074C7.82997 24.9699 7.82997 25.2803 7.75835 25.5906C7.68674 25.8771 7.56737 26.1397 7.3764 26.3784C7.18542 26.6171 6.94671 26.8081 6.70799 26.9513L6.46927 26.7126C6.42153 26.6649 6.39765 26.6171 6.39765 26.5694C6.39765 26.5216 6.39765 26.45 6.39765 26.3784C6.42153 26.3068 6.4454 26.2113 6.51701 26.1635C6.63637 26.0442 6.75573 25.9248 6.85122 25.7816C6.94671 25.6384 7.01832 25.519 7.0422 25.3996C7.08994 25.1371 7.08994 24.9222 7.01832 24.7312C6.94671 24.5403 6.7796 24.4209 6.54088 24.3732C6.37378 24.3493 6.23055 24.3732 6.06345 24.4686C5.92022 24.5641 5.75311 24.7551 5.56214 25.0416C5.29955 25.4474 5.03696 25.7577 4.7505 25.901C4.48791 26.0681 4.20145 26.1158 3.91498 26.0442C3.67626 25.9964 3.46142 25.8771 3.29431 25.71C3.12721 25.5429 3.03172 25.3519 2.96011 25.1132C2.96011 24.8506 2.96011 24.588 3.03172 24.3015ZM2.36331 28.9088C2.38718 28.6462 2.4588 28.3836 2.60203 28.1688C2.74526 27.9539 2.93624 27.7868 3.15108 27.6675C3.3898 27.5481 3.62852 27.5004 3.89111 27.5242C4.12983 27.5242 4.34468 27.6197 4.53565 27.7391C4.72663 27.8584 4.86986 28.0255 4.96534 28.2165C5.06083 28.4075 5.10858 28.5746 5.10858 28.7417V28.8372C5.13245 28.7417 5.15632 28.6462 5.18019 28.5985C5.20406 28.5507 5.27568 28.4791 5.34729 28.4552L7.28091 27.2378L7.25704 27.8346C7.25704 27.9301 7.23317 28.0255 7.18543 28.0972C7.13768 28.1688 7.08994 28.2404 6.97058 28.312L5.25181 29.434L5.20406 30.1263L7.08994 30.2456L7.0422 31.0095L2.24395 30.6992L2.36331 28.9088ZM2.2917 32.3225L3.03172 32.2509L3.27044 34.4948L4.48791 34.3516L4.29693 32.5135L5.03696 32.4418L5.22793 34.28L6.56476 34.1367L6.32604 31.8928L7.06607 31.8212L7.3764 34.829L2.60203 35.3303L2.2917 32.3225ZM4.01047 40.8209C3.9866 40.7254 3.9866 40.6299 4.01047 40.5583C4.03434 40.4628 4.08209 40.3912 4.1537 40.3195L6.68412 38.195C6.82735 38.0756 6.99445 37.9562 7.2093 37.8846V37.8607C6.97058 37.9085 6.7796 37.9085 6.58863 37.8846L3.29431 37.4788C3.19883 37.4788 3.10334 37.4311 3.0556 37.3594C2.98398 37.3117 2.93624 37.2162 2.91237 37.1207L2.76913 36.6433L7.9732 37.2878L8.16417 37.9324L4.12983 41.2983L4.01047 40.8209ZM4.70275 42.3725L9.0713 40.3912L9.38163 41.0834L5.01309 43.0648L4.70275 42.3725ZM7.9732 48.1495L7.66286 47.6482C7.61512 47.5766 7.59125 47.4811 7.56738 47.4095C7.56738 47.3379 7.56737 47.2424 7.61512 47.1469L9.19066 43.3751C9.09517 43.5422 8.95194 43.6616 8.80871 43.7571L6.20668 45.4281L5.80086 44.7836L9.8352 42.1577L10.1455 42.6351C10.1694 42.659 10.1694 42.7067 10.1694 42.7783C10.1694 42.85 10.1694 42.8977 10.1455 42.9454L8.42676 47.0037C8.52225 46.8604 8.64161 46.7411 8.78484 46.6456L11.554 44.8552L11.9598 45.4997L7.9732 48.1495ZM14.5618 49.4863C14.4663 49.7967 14.2992 50.107 14.0128 50.3696L11.9359 52.4226L11.4107 51.8974L13.4876 49.8444C13.6547 49.6773 13.7502 49.5102 13.8218 49.3192C13.8695 49.1283 13.8695 48.9373 13.8218 48.7224C13.7741 48.5315 13.6547 48.3405 13.4876 48.1734C13.3205 48.0063 13.1295 47.8869 12.9385 47.8392C12.7476 47.7914 12.5327 47.7914 12.3417 47.8392C12.1508 47.8869 11.9598 48.0063 11.7927 48.1734L9.71584 50.2264L9.19066 49.7012L11.2675 47.6482C11.5301 47.3856 11.8404 47.1946 12.1508 47.123C12.4611 47.0275 12.7953 47.0275 13.1295 47.123C13.4398 47.2185 13.7502 47.4095 14.0128 47.6721C14.2754 47.9347 14.4663 48.245 14.5618 48.5553C14.6812 48.8418 14.6812 49.1521 14.5618 49.4863ZM24.2538 58.7964L23.5376 58.6054L24.5164 54.9291C24.4925 54.9769 24.4209 55.0246 24.3732 55.0723L24.0151 55.2872C23.9673 55.3111 23.8957 55.3349 23.848 55.3349C23.8002 55.3349 23.7525 55.3349 23.6809 55.3349C23.5854 55.3111 23.5138 55.2633 23.466 55.1678L23.2989 54.8575L24.7551 53.9981L25.4474 54.1891L24.2538 58.7964ZM29.6011 58.5576L28.9327 58.486L28.8133 59.4886L28.0733 59.417L28.1926 58.4144L25.9964 58.1757L26.0203 57.5789C26.0203 57.555 26.0203 57.5073 26.0442 57.4595C26.0681 57.4118 26.0919 57.3879 26.1158 57.3402L28.312 54.8098C28.3597 54.762 28.4075 54.7143 28.4791 54.6904C28.5507 54.6665 28.5985 54.6427 28.6462 54.6665L29.3624 54.7381L29.0282 57.7699L29.6966 57.8415L29.6011 58.5576ZM34.2322 58.295C34.1129 58.677 33.9219 58.9635 33.6593 59.1783C33.3967 59.3932 33.0864 59.5125 32.7044 59.5364C32.3225 59.5603 31.9883 59.4886 31.7257 59.2977C31.4392 59.1067 31.2244 58.8441 31.0573 58.486C30.8902 58.1279 30.7947 57.6982 30.7708 57.1969C30.7469 56.6956 30.7708 56.2421 30.914 55.8601C31.0334 55.4782 31.2244 55.1917 31.487 54.9769C31.7496 54.762 32.0599 54.6427 32.4418 54.6188C32.8238 54.5949 33.158 54.6665 33.4206 54.8575C33.707 55.0485 33.9219 55.3111 34.1129 55.6691C34.28 56.0272 34.3755 56.4569 34.3993 56.9582C34.3993 57.4595 34.3516 57.9131 34.2322 58.295ZM38.6963 58.486L37.9801 58.677L37.7414 57.6982L35.5929 58.2234L35.4019 57.6505C35.4019 57.6266 35.4019 57.5789 35.4019 57.5311C35.4019 57.4834 35.4019 57.4357 35.4258 57.4118L36.6194 54.2846C36.6433 54.213 36.6672 54.1652 36.7149 54.1175C36.7626 54.0697 36.8104 54.0459 36.8581 54.022L37.5504 53.8549L38.2904 56.815L38.935 56.6479L39.126 57.364L38.4814 57.5311L38.6963 58.486ZM30.8902 52.6374C18.9304 52.6374 9.16679 42.8977 9.16679 30.914C9.16679 18.9304 18.9304 9.19066 30.8902 9.19066C42.85 9.19066 52.6135 18.9304 52.6135 30.914C52.6135 42.8977 42.85 52.6374 30.8902 52.6374ZM50.9664 51.1335C50.8948 51.3722 50.7277 51.5871 50.5367 51.778C50.3696 51.9451 50.1786 52.0645 49.9399 52.16C49.7012 52.2555 49.4863 52.3032 49.2476 52.2793L49.176 52.0168C49.1521 51.9451 49.1521 51.8496 49.176 51.778C49.1999 51.7064 49.2237 51.6348 49.2715 51.5871C49.3192 51.5393 49.367 51.5154 49.4147 51.4916C49.5341 51.4677 49.6534 51.4438 49.7489 51.3722C49.8444 51.3245 49.9399 51.2528 49.9876 51.2051C50.1309 51.0619 50.2264 50.9186 50.2502 50.7515C50.2741 50.5844 50.2264 50.4412 50.107 50.3218C50.0115 50.2264 49.8922 50.1786 49.7251 50.2025C49.5579 50.2025 49.3431 50.2741 49.0805 50.4173C48.6269 50.6322 48.2211 50.7277 47.8869 50.7038C47.5527 50.6799 47.2424 50.5367 47.0037 50.298C46.8127 50.0831 46.6933 49.8444 46.6456 49.6057C46.5978 49.3431 46.6217 49.1044 46.7172 48.8418C46.8127 48.5792 46.9798 48.3405 47.2185 48.1018C47.4334 47.8869 47.6959 47.7437 47.9585 47.6721C48.245 47.5766 48.5315 47.5527 48.8418 47.5766L48.9134 47.8869C48.9134 47.9347 48.9134 48.0063 48.9134 48.054C48.8895 48.1018 48.8657 48.1495 48.8179 48.1973C48.7463 48.245 48.6747 48.2927 48.5792 48.3166C48.4121 48.3405 48.245 48.3882 48.1018 48.4598C47.9347 48.5315 47.8153 48.6031 47.7198 48.6747C47.5288 48.8657 47.4095 49.0566 47.3856 49.2476C47.3617 49.4625 47.4095 49.6296 47.5766 49.7967C47.6959 49.916 47.8392 49.9638 48.0302 49.9638C48.2211 49.9638 48.4598 49.8922 48.7702 49.7728C49.2237 49.5818 49.6057 49.4863 49.916 49.5102C50.2264 49.5102 50.489 49.6296 50.7038 49.8444C50.8709 50.0354 50.9903 50.2264 51.038 50.4651C51.0858 50.6799 51.0619 50.8948 50.9664 51.1335ZM52.5897 49.5341L48.9134 46.4546L49.3908 45.8817L53.0671 48.9612L52.5897 49.5341ZM55.1678 45.8578C55.144 46.0965 55.0485 46.3353 54.9052 46.5978C54.7859 46.7888 54.6188 46.9559 54.4278 47.0992C54.213 47.2424 53.9981 47.3379 53.7833 47.3617L53.6639 47.123C53.64 47.0514 53.6162 46.9798 53.6162 46.9082C53.6162 46.8366 53.64 46.7649 53.6639 46.7172C53.6878 46.6695 53.7355 46.6217 53.7833 46.5978C53.9026 46.5501 53.9981 46.4785 54.0697 46.4069C54.1652 46.3353 54.2368 46.2398 54.2846 46.1681C54.4039 46.001 54.4517 45.8339 54.4278 45.6668C54.4278 45.4997 54.3323 45.3804 54.1891 45.2849C54.0697 45.2133 53.9504 45.2133 53.7833 45.261C53.6162 45.3088 53.4252 45.4281 53.1865 45.5952C52.8045 45.9056 52.4464 46.0965 52.0884 46.1681C51.7542 46.2159 51.4438 46.1681 51.1335 45.9772C50.8948 45.8101 50.7277 45.6191 50.6083 45.3804C50.489 45.1417 50.4651 44.8791 50.489 44.6165C50.5128 44.3539 50.6322 44.0674 50.7993 43.8048C50.9664 43.5661 51.1812 43.3513 51.4438 43.208C51.7064 43.0409 51.969 42.9693 52.2555 42.8977L52.3987 43.1842C52.4226 43.2319 52.4226 43.3035 52.4226 43.3513C52.4226 43.399 52.3987 43.4706 52.3748 43.5184C52.3271 43.59 52.2555 43.6377 52.1838 43.6855C52.0406 43.7332 51.8735 43.8287 51.7303 43.9242C51.5871 44.0197 51.4916 44.139 51.42 44.2107C51.2767 44.4255 51.2051 44.6404 51.229 44.8552C51.229 45.07 51.3483 45.2133 51.5393 45.3326C51.6825 45.4281 51.8258 45.4281 52.0168 45.3804C52.2077 45.3326 52.4226 45.2133 52.6852 45.0223C53.091 44.7358 53.4252 44.5449 53.7355 44.4971C54.0459 44.4494 54.3323 44.4971 54.571 44.6642C54.7859 44.8075 54.9291 44.9746 55.0485 45.1894C55.144 45.3804 55.1917 45.6191 55.1678 45.8578ZM57.8415 40.5821C57.8176 40.6776 57.746 40.7492 57.6982 40.797C57.6505 40.8447 57.555 40.8925 57.4595 40.9163L53.4491 41.7519C53.64 41.7519 53.831 41.7757 53.9742 41.8473L56.8389 43.0409L56.5524 43.7332L52.1122 41.8951L52.3271 41.3699C52.351 41.3222 52.3748 41.2983 52.4226 41.2505C52.4703 41.2267 52.5181 41.2028 52.5897 41.1789L56.9105 40.2957C56.7434 40.2957 56.5763 40.2718 56.4092 40.2002L53.3536 38.935L53.64 38.2427L58.0802 40.0808L57.8415 40.5821ZM58.5576 38.3382L57.8176 38.195L58.2712 35.9749L57.0537 35.7362L56.6718 37.5504L55.9556 37.4072L56.3376 35.5929L55.0246 35.3303L54.571 37.5504L53.831 37.4072L54.4517 34.4471L59.1544 35.4258L58.5576 38.3382ZM56.3614 32.5612L59.4648 32.6089V33.349L54.6665 33.2774V32.7044C54.6665 32.6567 54.6665 32.6089 54.7143 32.5612C54.7381 32.5135 54.7859 32.4657 54.8336 32.4418L58.5099 30.0308C58.3428 30.0785 58.1757 30.1263 58.0086 30.1263L54.6904 30.0785V29.3385L59.4886 29.4101V30.0069C59.4886 30.1024 59.4648 30.1979 59.4409 30.2456C59.417 30.3172 59.3454 30.3889 59.2499 30.4366L55.8362 32.6806C56.0033 32.5851 56.1943 32.5373 56.3614 32.5612Z" fill="#EA0029"/>
<path d="M30.9132 15.4211C30.8416 15.4211 30.6745 15.445 30.7699 15.5166C30.8416 15.5644 30.9371 15.827 31.0803 15.8508C31.1519 15.8508 31.1042 15.7553 31.1519 15.7553C31.1996 15.7553 31.2951 15.9225 31.3429 15.8747C31.4145 15.7792 31.1519 15.4689 30.9132 15.4211Z" fill="#EA0029"/>
<path d="M25.4719 26.0918C25.5435 25.9486 25.448 25.9008 25.4242 25.8292C25.4003 25.7337 25.448 25.686 25.3525 25.6382C25.2571 25.6144 25.1377 25.8054 25.1377 26.0441C25.1377 26.1873 25.3764 26.2828 25.4719 26.0918Z" fill="#EA0029"/>
<path d="M23.4903 28.0492C23.538 27.906 23.5141 27.6912 23.5141 27.5957C23.538 27.357 23.7051 27.1182 23.5858 27.0705C23.4425 27.0228 23.4186 27.3092 23.2993 27.4286C23.1799 27.5479 22.6786 27.9299 22.9651 28.288C23.0844 28.4073 23.3948 28.2641 23.4903 28.0492Z" fill="#EA0029"/>
<path d="M36.9535 37.5504C36.5715 37.0491 35.3779 34.9484 35.7838 33.6593C36.118 32.5612 37.8845 32.3941 39.0781 32.6567C37.407 31.6302 35.2586 32.1792 35.0199 33.7548C34.805 35.0438 35.5928 36.7626 35.9986 37.3833C36.2612 37.4549 36.6909 37.4788 36.9535 37.5504Z" fill="#EA0029"/>
<path d="M25.2326 38.1232C26.0203 38.0754 26.4023 37.5264 27.1184 37.3115C26.2829 37.407 24.97 37.407 24.6835 37.4548C24.4448 37.5025 23.3228 37.9322 22.917 38.0993C23.2989 38.0993 24.9222 38.147 25.2326 38.1232Z" fill="#EA0029"/>
<path d="M25.3284 36.7151C25.2567 36.3093 25.209 36.1661 25.1374 35.9035C23.4664 35.1396 23.9915 32.6092 25.5193 32.2988C22.5592 32.3227 22.9651 36.5241 25.3284 36.7151Z" fill="#EA0029"/>
<path d="M35.6403 39.7225C36.1178 39.6986 36.8817 39.3883 37.1442 39.078C36.6429 39.078 35.2345 39.0064 35.0913 39.078C34.6138 39.1973 34.3035 39.4122 33.7783 39.7225C34.017 39.6748 34.9958 39.7703 35.6403 39.7225Z" fill="#EA0029"/>
<path d="M40.7006 31.272C40.6528 31.272 40.4618 31.3675 40.6051 31.5584C42.2522 33.6353 42.491 37.0251 41.9419 38.4097C44.711 36.4044 43.8755 32.0597 40.7006 31.272Z" fill="#EA0029"/>
</svg>
