<svg width="35" height="35" viewBox="0 0 35 35" fill="none" xmlns="http://www.w3.org/2000/svg">
<circle cx="17.0537" cy="17.0537" r="17.0537" fill="white"/>
<path d="M19.6502 18.2659L20.9127 25.3709C20.9269 25.4545 20.9151 25.5405 20.8791 25.6173C20.843 25.6941 20.7844 25.7581 20.711 25.8007C20.6376 25.8433 20.553 25.8624 20.4684 25.8556C20.3838 25.8488 20.3033 25.8163 20.2377 25.7625L17.2544 23.5234C17.1104 23.4158 16.9354 23.3576 16.7556 23.3576C16.5759 23.3576 16.4009 23.4158 16.2569 23.5234L13.2686 25.7617C13.203 25.8154 13.1226 25.8478 13.0381 25.8547C12.9537 25.8615 12.8691 25.8424 12.7958 25.7999C12.7224 25.7575 12.6638 25.6936 12.6277 25.617C12.5915 25.5403 12.5796 25.4545 12.5936 25.3709L13.8552 18.2659" stroke="#293E72" stroke-width="1.66667" stroke-linecap="round" stroke-linejoin="round"/>
<path d="M16.752 19.1908C19.5134 19.1908 21.752 16.9522 21.752 14.1908C21.752 11.4294 19.5134 9.1908 16.752 9.1908C13.9905 9.1908 11.752 11.4294 11.752 14.1908C11.752 16.9522 13.9905 19.1908 16.752 19.1908Z" stroke="#293E72" stroke-width="1.66667" stroke-linecap="round" stroke-linejoin="round"/>
</svg>
