<svg width="69" height="69" viewBox="0 0 69 69" fill="none" xmlns="http://www.w3.org/2000/svg">
<circle cx="34.2873" cy="34.2873" r="34.2873" fill="#1F375B"/>
<path d="M34.2884 53.0992C23.8986 53.0992 15.4766 44.6772 15.4766 34.2874C15.4766 23.8976 23.8986 15.4756 34.2884 15.4756C44.6781 15.4756 53.1002 23.8976 53.1002 34.2874C53.1002 44.6772 44.6781 53.0992 34.2884 53.0992ZM28.4379 36.4884L28.4624 36.4752L30.099 41.8742C30.3097 42.4592 30.5994 42.5646 30.9512 42.5157C31.3048 42.4687 31.4911 42.2787 31.7224 42.0567L33.9573 39.8971L38.7543 43.4487C39.6309 43.9322 40.2611 43.682 40.4793 42.6361L43.5965 27.9215C43.9407 26.552 43.3387 26.0027 42.2759 26.4391L23.9663 33.5124C22.7172 34.0127 22.7248 34.7125 23.7406 35.0229L28.4379 36.4884Z" fill="white"/>
</svg>
