<svg width="44" height="44" viewBox="0 0 44 44" fill="none" xmlns="http://www.w3.org/2000/svg">
<circle cx="22" cy="22" r="22" fill="#293E72"/>
<path d="M22.4307 10.4918C28.7777 10.4918 33.9363 15.6536 33.9365 21.9996C33.9365 28.3458 28.7779 33.5084 22.4307 33.5084C20.288 33.5084 18.2842 32.9211 16.5625 31.8951L14.1758 32.1197L12.3525 32.2916L12.5439 30.4703L12.7754 28.2564C11.6016 26.4544 10.9199 24.3026 10.9199 21.9996C10.9202 15.6522 16.0788 10.4918 22.4258 10.4918H22.4307Z" fill="#293E72" stroke="white" stroke-width="3"/>
<path d="M19.0078 16.3315L19.0068 16.3324C19.1434 16.3382 19.3236 16.3427 19.4873 16.4496C19.6099 16.5297 19.702 16.651 19.7832 16.809L19.8613 16.9789C20.1058 17.5678 20.6868 18.9857 20.7559 19.1322L20.8154 19.2729C20.8744 19.4372 20.9146 19.6649 20.7949 19.8969L20.7939 19.8959C20.6849 20.1261 20.5819 20.2393 20.4375 20.4057C20.3596 20.4954 20.2826 20.5756 20.2129 20.6498C20.1422 20.7252 20.0754 20.7976 20.0078 20.8813L20.0039 20.8861C19.9277 20.9757 19.8923 21.0207 19.877 21.0658C19.8696 21.0875 19.8585 21.1283 19.9111 21.2201L20.1104 21.5404C20.3809 21.9565 20.8594 22.6201 21.4863 23.1781C22.5684 24.1415 23.4386 24.4469 23.7617 24.5815C23.9363 24.6538 24.1029 24.6211 24.1885 24.5316L24.3555 24.3344C24.5316 24.1128 24.7339 23.8228 24.9502 23.5199C25.0772 23.3409 25.2369 23.2205 25.4258 23.1713C25.6089 23.1236 25.7902 23.151 25.9531 23.2113H25.9541C26.1067 23.2643 26.549 23.4735 26.9688 23.6762C27.3978 23.8834 27.8299 24.0978 27.9775 24.1713H27.9785C28.1088 24.2367 28.2525 24.3018 28.3496 24.3549C28.4241 24.3956 28.5108 24.4487 28.5801 24.5258L28.6426 24.6117L28.6436 24.6137C28.6904 24.6968 28.7056 24.8052 28.7119 24.891C28.7192 24.9898 28.7176 25.1094 28.7061 25.2426C28.6828 25.5095 28.6181 25.8467 28.4902 26.2084C28.3442 26.6209 27.9944 26.9705 27.6084 27.2318C27.2178 27.4962 26.7575 27.692 26.3428 27.7816H26.3418C26.0596 27.8417 25.7259 27.8961 25.1641 27.807C24.6128 27.7196 23.8462 27.495 22.6885 27.015C19.6704 25.7644 17.7321 22.7047 17.6025 22.5346L17.5996 22.5307C17.5283 22.4329 17.2209 22.0229 16.9316 21.4525C16.6442 20.8858 16.3633 20.1389 16.3633 19.3647C16.3633 17.8261 17.1535 17.0653 17.458 16.7543L17.5801 16.6449C17.8822 16.4122 18.2932 16.3197 18.6602 16.3197C18.7915 16.3197 18.9097 16.3265 19.0078 16.3315Z" fill="white" stroke="white" stroke-width="0.5"/>
</svg>
