<svg width="45" height="45" viewBox="0 0 45 45" fill="none" xmlns="http://www.w3.org/2000/svg">
<path d="M22.5 0.5C34.6503 0.5 44.5 10.3497 44.5 22.5C44.5 34.6503 34.6503 44.5 22.5 44.5C10.3497 44.5 0.5 34.6503 0.5 22.5C0.5 10.3497 10.3497 0.5 22.5 0.5Z" stroke="#657191"/>
<path d="M33.1589 16.034C32.5268 14.9097 31.8409 14.7029 30.4443 14.6242C29.0491 14.5296 25.5407 14.4902 22.5013 14.4902C19.4561 14.4902 15.9463 14.5296 14.5526 14.6228C13.1589 14.7029 12.4715 14.9082 11.8336 16.034C11.1826 17.1568 10.8477 19.0908 10.8477 22.4958C10.8477 22.4987 10.8477 22.5001 10.8477 22.5001C10.8477 22.5031 10.8477 22.5045 10.8477 22.5045V22.5074C10.8477 25.8978 11.1826 27.8464 11.8336 28.9576C12.4715 30.0819 13.1574 30.2858 14.5511 30.3804C15.9463 30.462 19.4561 30.51 22.5013 30.51C25.5407 30.51 29.0491 30.462 30.4457 30.3819C31.8424 30.2872 32.5283 30.0833 33.1603 28.959C33.8172 27.8478 34.1492 25.8993 34.1492 22.5089C34.1492 22.5089 34.1492 22.5045 34.1492 22.5016C34.1492 22.5016 34.1492 22.4987 34.1492 22.4972C34.1492 19.0908 33.8172 17.1568 33.1589 16.034ZM19.5857 26.8692V18.1311L26.8675 22.5001L19.5857 26.8692Z" fill="#293E72"/>
</svg>
